<?xml version="1.0" encoding="utf-8"?>
<!-- Generator: Adobe Illustrator 22.0.1, SVG Export Plug-In . SVG Version: 6.00 Build 0)  -->
<svg version="1.1" id="Layer_1" xmlns="http://www.w3.org/2000/svg" xmlns:xlink="http://www.w3.org/1999/xlink" x="0px" y="0px"
	 viewBox="0 0 380.5 111.1" style="enable-background:new 0 0 380.5 111.1;" xml:space="preserve">
<style type="text/css">
	.st0{opacity:0.4;clip-path:url(#SVGID_2_);fill:#E9E9E9;}
	.st1{clip-path:url(#SVGID_2_);fill:#FFFFFF;}
	.st2{clip-path:url(#SVGID_2_);fill:#F9F9F9;}
</style>
<g>
	<g>
		<defs>
			
				<rect id="SVGID_1_" x="0.2" transform="matrix(-1 -1.224647e-16 1.224647e-16 -1 380.453 116.4731)" width="380" height="116.5"/>
		</defs>
		<clipPath id="SVGID_2_">
			<use xlink:href="#SVGID_1_"  style="overflow:visible;"/>
		</clipPath>
		<path class="st0" d="M35.2,138.4c9,0,17.5-2,25.1-5.5c9.6,36.4,42.8,63.3,82.3,63.3c36.7,0,67.9-23.2,79.9-55.7
			c7.9,3.2,16.5,5,25.5,5c24.1,0,45.2-12.7,57-31.9c10.2,12.6,25.8,20.7,43.3,20.7c30.8,0,55.7-25,55.7-55.7s-25-55.7-55.7-55.7
			c-17.5,0-33.1,8.1-43.3,20.7c-11.8-19.1-32.9-31.9-57-31.9c-23.3,0-43.9,12-55.9,30.1c-14-10-31-15.9-49.5-15.9
			c-21.7,0-41.4,8.1-56.4,21.4c-10.5-17.1-29.4-28.5-51-28.5c-33,0-59.8,26.8-59.8,59.8C-24.6,111.6,2.2,138.4,35.2,138.4z"/>
		<circle class="st1" cx="348.3" cy="88.6" r="55.7"/>
		<circle class="st1" cx="248" cy="88.6" r="66.9"/>
		<circle class="st1" cx="142.6" cy="121" r="85.1"/>
		<circle class="st1" cx="35.2" cy="88.6" r="59.8"/>
		<path class="st1" d="M35.2,148.4c9,0,17.5-2,25.1-5.5c9.6,36.4,42.8,63.3,82.3,63.3c36.7,0,67.9-23.2,79.9-55.7
			c7.9,3.2,16.5,5,25.5,5c24.1,0,45.2-12.7,57-31.9c10.2,12.6,25.8,20.7,43.3,20.7c30.8,0,55.7-25,55.7-55.7s-25-55.7-55.7-55.7
			c-17.5,0-33.1,8.1-43.3,20.7c-11.8-19.1-32.9-31.9-57-31.9c-23.3,0-43.9,12-55.9,30.1c-14-10-31-15.9-49.5-15.9
			c-21.7,0-41.4,8.1-56.4,21.4c-10.5-17.1-29.4-28.5-51-28.5c-33,0-59.8,26.8-59.8,59.8C-24.6,121.6,2.2,148.4,35.2,148.4z"/>
		<path class="st2" d="M351.3,41c26.3,0,47.6,21.3,47.6,47.6s-21.3,47.6-47.6,47.6C379.1,110.3,379.1,67,351.3,41z"/>
		<path class="st2" d="M241.9,144.3c-30.8,0-55.7-25-55.7-55.7s25-55.7,55.7-55.7C209.5,63.3,209.5,113.9,241.9,144.3z"/>
		<path class="st2" d="M86.7,87.2c-3.3-19.9,15.5-39.6,42-44s50.6,8.3,53.9,28.2C153,54.7,109.4,61.9,86.7,87.2z"/>
		<path class="st2" d="M33.2,144.3c-30.8,0-55.7-25-55.7-55.7s25-55.7,55.7-55.7C0.7,63.3,0.7,113.9,33.2,144.3z"/>
	</g>
</g>
</svg>
