<svg height="130.25" viewBox="0 0 174.43 130.25" width="174.43" xmlns="http://www.w3.org/2000/svg" xmlns:xlink="http://www.w3.org/1999/xlink"><clipPath id="a"><path d="m97.28 130h-15.19v-16.36a10.21 10.21 0 0 1 10.17-10.18 10.21 10.21 0 0 1 10.18 10.18v16.36z"/></clipPath><path d="m156.08 52.42v19.06" fill="none" stroke="#aaa" stroke-miterlimit="10"/><path d="m133.46 70.43h-2.3-84.07-2.31v3.97h2.31v18.55h84.07v-18.55h2.3z" fill="#c3c3c3"/><path d="m34 64.83-2.7 2.49v2.61h-2.4v-2.61l-2.69-2.49-2.74 2.49v2.61h-2.39v-2.61l-2.7-2.49-2.73 2.49v2.61h-2.39v-2.61l-2.7-2.49-2.74 2.49v2.61h-2.39v-2.61l-2.69-2.49-2.74 2.49v8.08a2.5 2.5 0 0 0 2.49 2.5h31.74a2.5 2.5 0 0 0 2.5-2.5v-5.47-2.61z" fill="#aaa"/><path d="m2.62 77.91h31.49v52.12h-31.49z" fill="#c3c3c3"/><path d="m2.62 77.91h20.85v52.12h-20.85z" fill="#aaa"/><path d="m7.82 69.93v-2.61l2.74-2.49v5.1z" fill="#777"/><path d="m15.65 69.93v-2.61l2.73-2.49v5.1z" fill="#777"/><path d="m23.47 69.93v-2.61l2.74-2.49v5.1z" fill="#777"/><path d="m31.3 69.93v-2.61l2.73-2.49v5.1z" fill="#777"/><path d="m36.73 75.4v-5.47" fill="#aaa"/><path d="m34.23 77.9a2.5 2.5 0 0 0 2.5-2.5" fill="#aaa"/><path d="m2.62 77.91h10.43v52.12h-10.43z" fill="#777"/><path d="m47.04 74.28h10.43v18.87h-10.43z" fill="#777"/><path d="m15.65 54.28h2.73v34.03h-2.73z" fill="#777" transform="matrix(0 -1 1 0 -54.28 88.32)"/><rect fill="#777" height="10.86" rx="2.54" width="5.07" x="15.83" y="87.52"/><path d="m171.73 64.83-2.73 2.49v2.61h-2.4v-2.61l-2.69-2.49-2.74 2.49v2.61h-2.39v-2.61l-2.7-2.49-2.73 2.49v2.61h-2.35v-2.61l-2.7-2.49-2.74 2.49v2.61h-2.39v-2.61l-2.69-2.49-2.74 2.49v8.08a2.5 2.5 0 0 0 2.5 2.5h31.73a2.5 2.5 0 0 0 2.5-2.5v-5.47-2.61z" fill="#aaa"/><path d="m140.32 77.91h31.49v52.12h-31.49z" fill="#c3c3c3"/><path d="m140.38 93h-114.69v5.91h2.31v31.09h112.3s-.02-37.08.08-37z" fill="#c3c3c3"/><path d="m77.19 43.27h28.18v44.04h-28.18z" fill="#c3c3c3"/><path d="m74.28 38.06h34.01v5.21h-34.01z" fill="#aaa"/><path d="m91.68 0 15.75 38.06h-32.28z" fill="#0b7fd9"/><path d="m91.29 38.06h-16.14l16.53-38.06z" fill="#0060bf"/><path d="m140.32 77.91h20.85v52.12h-20.85z" fill="#aaa"/><path d="m137.7 69.93v-2.61l2.74-2.49v5.1z" fill="#777"/><path d="m110.4 83.77-3.4 2.5v2.61h-3v-2.61l-3.35-2.5-3.4 2.5v2.61h-3v-2.61l-3.25-2.5-3.4 2.5v2.61h-3v-2.61l-3.35-2.5-3.39 2.5v2.61h-3v-2.61l-3.34-2.5-3.4 2.5v8.07a2.84 2.84 0 0 0 3.1 2.5h39.42a2.85 2.85 0 0 0 3.1-2.5v-5.46-2.61z" fill="#aaa"/><path d="m77.84 88.88v-2.61l3.4-2.5v5.11z" fill="#777"/><path d="m87.56 88.88v-2.61l3.4-2.5v5.11z" fill="#777"/><path d="m97.28 88.88v-2.61l3.4-2.5v5.11z" fill="#777"/><path d="m107 88.88v-2.61l3.4-2.5v5.11z" fill="#777"/><path d="m113.75 94.34v-5.46" fill="#aaa"/><g fill="#777"><path d="m87.9 69.11h2.73v42.27h-2.73z" transform="matrix(0 -1 1 0 -.98 179.51)"/><path d="m68.13 88.88v-2.61l3.4-2.5v5.11z"/><path d="m145.53 69.93v-2.61l2.73-2.49v5.1z"/><path d="m153.35 69.93v-2.61l2.74-2.49v5.1z"/><path d="m161.17 69.93v-2.61l2.74-2.49v5.1z"/><path d="m169 69.93v-2.61l2.73-2.49v5.1z"/></g><path d="m174.43 75.4v-5.47" fill="#aaa"/><path d="m171.93 77.9a2.5 2.5 0 0 0 2.5-2.5" fill="#aaa"/><path d="m137.7 75.4a2.5 2.5 0 0 0 2.5 2.5" fill="#aaa"/><path d="m140.32 77.91h10.43v52.12h-10.43z" fill="#777"/><path d="m153.35 54.28h2.73v34.03h-2.73z" fill="#777" transform="matrix(0 -1 1 0 83.42 226.02)"/><rect fill="#777" height="10.86" rx="2.54" width="5.07" x="153.53" y="87.52"/><rect fill="#aaa" height="8.88" rx="2.07" width="4.15" x="88.86" y="45.16"/><rect fill="#aaa" height="10.86" rx="2.54" width="5.07" x="120.93" y="84.88"/><rect fill="#aaa" height="10.86" rx="2.54" width="5.07" x="55.51" y="84.88"/><rect fill="#aaa" height="10.86" rx="2.54" width="5.07" x="96.41" y="61.95"/><path d="m40.72 93.03h-15.03v5.91h2.28v31.06h12.61z" fill="#777"/><path d="m140.19 93.03h-2.97-108.55-2.98v3.98h2.98 108.55 2.97z" fill="#aaa"/><rect fill="#777" height="10.86" rx="2.54" width="5.07" x="127.14" y="102.82"/><rect fill="#777" height="10.86" rx="2.54" width="5.07" x="111.21" y="102.82"/><rect fill="#777" height="10.86" rx="2.54" width="5.07" x="63.69" y="102.82"/><path d="m97.28 130h-15.19v-16.36a10.21 10.21 0 0 1 10.17-10.18 10.21 10.21 0 0 1 10.18 10.18v16.36z" fill="#b7743e" stroke="#a2632f" stroke-miterlimit="10" stroke-width=".5"/><rect fill="#777" height="10.86" rx="2.54" width="5.07" x="47.76" y="102.82"/><path d="m18.49 50.74v19.05" fill="none" stroke="#aaa" stroke-miterlimit="10"/><path d="m77.19 43.27h10.43v27.27h-10.43z" fill="#777"/><path d="m75.71 55.63h31.16v2.72h-31.16z" fill="#aaa"/><rect fill="#aaa" height="10.86" rx="2.54" width="5.07" x="80.41" y="61.95"/><path d="m133.46 70.43h-2.3-84.07-2.31v3.97h2.31 84.07 2.3z" fill="#aaa"/><g clip-path="url(#a)" fill="none" stroke="#a2632f" stroke-miterlimit="10" stroke-width=".51"><path d="m87.14 102.93h5.08v27.35h-5.08z"/><path d="m97.31 130.27h-5.08v-27.35h5.08z"/></g><path d="m33.21 52.09h-8.98v7.72h8.98l-5.37-3.86z" fill="#00568c"/><path d="m17.95 50.76h8.93v7.72h-8.93z" fill="#0f78bf"/><path d="m170.88 53.74h-8.98v7.73h8.98l-5.37-3.87z" fill="#00568c"/><path d="m155.62 52.42h8.93v7.72h-8.93z" fill="#0f78bf"/><path d="m90.37 30.71.39-3.13-3.37.25-.86-1.76c.43-1.29.84-2.52 1.24-3.69.17-.5.33-1 .5-1.54l.5-1.53c.17-.5.32-1 .46-1.41l.39-1.15c.55 0 1.07 0 1.56-.05s1-.09 1.57-.17c-.48 1.22-.93 2.43-1.34 3.66s-.81 2.47-1.2 3.73v.24a1.58 1.58 0 0 1 -.06.23h1.35c0-.09 0-.23.08-.44s.08-.44.14-.71.1-.57.16-.9.12-.66.19-1c.13-.75.28-1.58.47-2.48.41-.07.84-.12 1.27-.18l1.09-.13 1-.1c0 .13 0 .35-.11.66s-.12.67-.19 1.06-.15.81-.22 1.25-.15.86-.22 1.25-.15.74-.2 1.06-.09.53-.12.66h1.12l-.8 3.13h-1l-.16 2.56z" fill="#fff"/></svg>