<svg enable-background="new 0 0 15.7 15.7" height="15.7" viewBox="0 0 15.7 15.7" width="15.7" xmlns="http://www.w3.org/2000/svg"><circle cx="7.8" cy="7.8" fill="#ffd341" r="7.8"/><path d="m6.7 11.7c0-.1 0-.2.1-.3 0-.1 0-.2.1-.3 0-.1 0-.2.1-.3-.2 0-.4-.1-.6-.2s-.4-.3-.6-.6l.6-1.3c0 .1.1.2.2.2.1.1.1.2.2.2.1.1.2.1.2.2.1 0 .2.1.2.1.2 0 .3 0 .4-.1s.2-.3.2-.5c0-.1 0-.2-.1-.3-.1 0-.2-.1-.3-.2s-.2-.2-.4-.3c-.1-.2-.2-.3-.3-.4s-.2-.3-.3-.4c-.1-.2-.1-.3-.1-.5s0-.3.1-.5.2-.3.3-.5.3-.2.5-.3.4-.2.5-.3c0-.2.1-.4.1-.5.1-.2.2-.3.2-.5l1.2-.1-.4.9c.2 0 .3 0 .4.1.2 0 .3 0 .4.1s.2.2.2.3c.1.2.2.3.2.5v.2.2l-1.3.4c0-.1 0-.1 0-.1s0 0 0-.1c0-.2 0-.3-.1-.4s-.1-.1-.2-.1-.2 0-.2 0c-.1.1-.1.1-.2.1 0 .1-.1.1-.1.2v.2c0 .1 0 .2.1.3 0 0 .1.1.2.2s.2.2.4.3.3.2.4.4c.1.1.2.3.3.5s.1.4.1.7c0 .2 0 .5-.1.7-.1.1-.2.3-.3.4-.1.2-.3.3-.5.4s-.4.2-.6.3c0 .2 0 .3-.1.5v.3z" fill="#ffa82d"/><circle cx="7.8" cy="7.8" fill="none" r="6.1" stroke="#ffb540" stroke-dasharray="1.4767 1.4767" stroke-miterlimit="10" stroke-width=".731"/></svg>