<svg enable-background="new 0 0 380 116" viewBox="0 0 380 116" xmlns="http://www.w3.org/2000/svg" xmlns:xlink="http://www.w3.org/1999/xlink"><clipPath id="a"><path d="m0-.8h380v117h-380z"/></clipPath><clipPath id="b"><path d="m0-.8h380v117h-380z"/></clipPath><clipPath id="c"><path d="m0-.8h380v117h-380z"/></clipPath><clipPath id="d"><path d="m0-.8h380v117h-380z"/></clipPath><clipPath id="e"><path d="m0-.8h380v117h-380z"/></clipPath><clipPath id="f"><path d="m0-.8h380v117h-380z"/></clipPath><clipPath id="g"><path d="m0-.8h380v117h-380z"/></clipPath><clipPath id="h"><path d="m0-.8h380v117h-380z"/></clipPath><clipPath id="i"><path d="m0-.8h380v117h-380z"/></clipPath><g fill="#fff"><circle clip-path="url(#a)" cx="31.9" cy="27.6" r="55.7"/><circle clip-path="url(#b)" cx="132.2" cy="27.7" r="66.9"/><circle clip-path="url(#c)" cx="237.6" cy="-4.8" r="85.1"/><circle clip-path="url(#d)" cx="345" cy="27.6" r="59.8"/><path clip-path="url(#e)" d="m345-32.2c-9 0-17.5 2-25.1 5.5-9.6-36.4-42.8-63.3-82.3-63.3-36.7 0-67.9 23.2-79.9 55.7-7.9-3.2-16.5-5-25.5-5-24.1 0-45.2 12.7-57 31.9-10.2-12.6-25.8-20.7-43.3-20.7-30.8 0-55.7 25-55.7 55.7s25 55.7 55.7 55.7c17.5 0 33.1-8.1 43.3-20.7 11.8 19.1 32.9 31.9 57 31.9 23.3 0 43.9-12 55.9-30.1 14 10 31 15.9 49.5 15.9 21.7 0 41.4-8.1 56.4-21.4 10.5 17.1 29.4 28.5 51 28.5 33 0 59.8-26.8 59.8-59.8s-26.7-59.8-59.8-59.8z"/></g><path clip-path="url(#f)" d="m28.9 75.2c-26.3 0-47.6-21.2-47.6-47.5s21.3-47.7 47.6-47.7c-27.7 25.9-27.7 69.2 0 95.2z" fill="#f9f9f9"/><path clip-path="url(#g)" d="m138.3-28.1c30.8 0 55.7 25 55.7 55.7s-25 55.7-55.7 55.7c32.4-30.3 32.4-81.1 0-111.4z" fill="#f9f9f9"/><path clip-path="url(#h)" d="m293.5 29c3.3 19.9-15.5 39.6-42 44s-50.6-8.3-53.9-28.2c29.6 16.7 73.2 9.5 95.9-15.8z" fill="#f9f9f9"/><path clip-path="url(#i)" d="m347.1-28.1c30.8 0 55.7 25 55.7 55.7s-25 55.7-55.7 55.7c32.4-30.3 32.4-81.1 0-111.4z" fill="#f9f9f9"/></svg>