<svg height="1004" viewBox="0 0 982 1004" width="982" xmlns="http://www.w3.org/2000/svg" xmlns:xlink="http://www.w3.org/1999/xlink"><clipPath id="a"><path d="m0 0h982v1004h-982z"/></clipPath><g clip-path="url(#a)"><ellipse cx="115.67" cy="860.93" fill="#d7ba7a" rx="321.57" ry="182.37"/><ellipse cx="116.15" cy="884.18" fill="#74bf43" rx="376.66" ry="213.61"/><path d="m437.88 856.19c-9 248.52-619.79 244-643.75 10.48-15.14-147.61 2-443.88 2-443.88 0-216.13 139.94-391.33 312.56-391.33 173.51 0 314.17 176.11 314.17 393.34.02 0 14.83 179.87 15.02 431.39z" fill="#009719"/><g fill="#1e5c12"><rect height="215.57" rx="34.92" width="69.83" x="83.38" y="317.8"/><rect height="215.57" rx="34.92" width="69.83" x="216.97" y="317.8"/><path d="m-96.44 998.51c-40-13.66-103.44-73.45-109.43-131.84-15.14-147.61 2-443.88 2-443.88 0-216.13 139.94-391.33 312.56-391.33.02 0-282.93-52.6-205.13 967.05z" opacity=".2"/></g><ellipse cx="605.91" cy="1081.41" fill="#d7ba7a" rx="301.32" ry="170.88"/><ellipse cx="606.35" cy="1103.2" fill="#74bf43" rx="352.94" ry="200.16"/><path d="m907.83 1077c-8.42 232.87-580.77 228.66-603.21 9.82-14.19-138.32 1.89-415.93 1.89-415.93 0-202.52 131.13-366.69 292.88-366.69 162.58 0 294.38 165 294.38 368.57 0-.03 13.89 168.52 14.06 404.23z" fill="#81ca14"/><rect fill="#1e5c12" height="202" opacity=".4" rx="32.72" width="65.44" x="426.99" y="572.48"/><rect fill="#1e5c12" height="202" opacity=".4" rx="32.72" width="65.44" x="552.17" y="572.48"/><path d="m797 1215.12c51.51-20.37 108.32-72.94 109.81-127.92 4-148-13.18-412.71-13.18-412.71-.55-208.29-132-369.36-293.74-369.36.02 0 270.04-45.45 197.11 909.99z" fill="#1e5c12" opacity=".2"/></g></svg>