<svg height="476.7" viewBox="0 0 947.21 476.7" width="947.21" xmlns="http://www.w3.org/2000/svg" xmlns:xlink="http://www.w3.org/1999/xlink"><linearGradient id="a" gradientUnits="userSpaceOnUse" x1="57.52" x2="57.52" y1="481.18" y2="-65.24"><stop offset="0" stop-color="#00acfa"/><stop offset=".33" stop-color="#1cbffa"/><stop offset="1" stop-color="#5fecf9"/></linearGradient><linearGradient id="b" x1="172.33" x2="172.33" xlink:href="#a" y1="481.18" y2="-65.24"/><linearGradient id="c" x1="270.71" x2="270.71" xlink:href="#a" y1="481.18" y2="-65.24"/><linearGradient id="d" x1="379.41" x2="379.41" xlink:href="#a" y1="481.18" y2="-65.24"/><linearGradient id="e" x1="471.84" x2="471.84" xlink:href="#a" y1="481.18" y2="-65.24"/><linearGradient id="f" x1="561.93" x2="561.93" xlink:href="#a" y1="481.18" y2="-65.24"/><linearGradient id="g" x1="679.54" x2="679.54" xlink:href="#a" y1="481.18" y2="-65.24"/><linearGradient id="h" x1="776.86" x2="776.86" xlink:href="#a" y1="481.18" y2="-65.24"/><linearGradient id="i" x1="879.57" x2="879.57" xlink:href="#a" y1="481.18" y2="-65.24"/><linearGradient id="j" x1="334.3" x2="334.3" xlink:href="#a" y1="481.18" y2="-65.24"/><linearGradient id="k" x1="443.34" x2="443.34" xlink:href="#a" y1="481.18" y2="-65.24"/><linearGradient id="l" x1="555.02" x2="555.02" xlink:href="#a" y1="481.18" y2="-65.24"/><linearGradient id="m" x1="668.85" x2="668.85" xlink:href="#a" y1="481.18" y2="-65.24"/><g fill="#3b1568"><path d="m105.19 160.77a56.47 56.47 0 0 1 -13.26 17.95 59.06 59.06 0 0 1 -19.67 11.67 70.87 70.87 0 0 1 -24.36 4.11 38.29 38.29 0 0 1 -18.29-4.91q-9.15-4.92-17.61-15.67l16.92-33.16a25.33 25.33 0 0 0 4.81 6.06 36.15 36.15 0 0 0 7.2 5.38 54 54 0 0 0 8 3.77 21 21 0 0 0 7.21 1.49 19.37 19.37 0 0 0 5.71-.92 18.59 18.59 0 0 0 5.49-2.74 15.13 15.13 0 0 0 4-4.23 10.53 10.53 0 0 0 1.49-5.57 16.51 16.51 0 0 0 -3.54-10.17 51.05 51.05 0 0 0 -8.81-8.92q-5.26-4.23-11.43-8.58a103.55 103.55 0 0 1 -11.32-9.15 51.8 51.8 0 0 1 -8.81-10.78 24.83 24.83 0 0 1 -3.66-13.27 38.41 38.41 0 0 1 7.09-22.13 70.13 70.13 0 0 1 17.73-17.78 93.87 93.87 0 0 1 23.21-11.77 72.81 72.81 0 0 1 23.78-4.35 44.53 44.53 0 0 1 11.67 1.49 24.83 24.83 0 0 1 9.49 4.8 24.32 24.32 0 0 1 6.4 8.35 29.16 29.16 0 0 1 2.37 12.58 36.43 36.43 0 0 1 -.57 6.4c-.38 2.14-.73 4.42-1 6.86l-33.16 9.61c.3-1.22.57-2.44.8-3.66a19.71 19.71 0 0 0 .34-3.66q0-6.87-2.4-10a7.59 7.59 0 0 0 -6.29-3.09 10.14 10.14 0 0 0 -4.46 1.37 31 31 0 0 0 -5.26 3.6 20.79 20.79 0 0 0 -4.46 5.14 12 12 0 0 0 -1.83 6.41 13.7 13.7 0 0 0 3.09 9.15 39.61 39.61 0 0 0 7.66 6.85q4.58 3.21 10 6.52a43.46 43.46 0 0 1 10 8.58 44.68 44.68 0 0 1 7.54 13.15q3.09 7.89 3.09 20a53.59 53.59 0 0 1 -4.9 23.22z"/><path d="m202.2 176.81a88.5 88.5 0 0 1 -15.26 14.49 54.06 54.06 0 0 1 -15.6 8.17 39.71 39.71 0 0 1 -14.81 1.91 26.24 26.24 0 0 1 -12.66-4.11 29.6 29.6 0 0 1 -9.46-10.27 53.73 53.73 0 0 1 -5.83-16.24 81.82 81.82 0 0 1 -1.05-22.09 154.41 154.41 0 0 1 9-41.89 139.43 139.43 0 0 1 19.34-36.32 93.93 93.93 0 0 1 27.36-25 56.12 56.12 0 0 1 33.24-7.81 25.14 25.14 0 0 1 10.33 3 25.89 25.89 0 0 1 8.21 7 31 31 0 0 1 5.09 10.46 38.37 38.37 0 0 1 1.22 13.38l-.21 2.85a21.34 21.34 0 0 1 -.45 3.06l-30.45 5.84q-2.33-5.9-6-6.16t-7.94 3.67a58.61 58.61 0 0 0 -8.66 10.39 154.22 154.22 0 0 0 -8.61 14.53q-4.25 8.07-7.59 16.31t-5.6 15.76a59.49 59.49 0 0 0 -2.61 12.31q-.52 7.3 1.21 10.4a5.87 5.87 0 0 0 4.92 3.33 11.26 11.26 0 0 0 5.84-1.53 25.6 25.6 0 0 0 6.29-4.59 44.67 44.67 0 0 0 5.52-6.59 28.47 28.47 0 0 0 3.75-7.53l25.27 12.36a115.49 115.49 0 0 1 -13.8 20.91z"/><path d="m304.73 175.87-10.68 2.61q.3-6.66.63-13.13c.12-3.77.21-7.53.26-11.3s.12-7 .18-9.68l-17.41 1.31-5.86 29.43q-4.37.93-10.31 2.08l-11.12 2.14q-6.34 1.28-12.49 2.54 6-27.23 11.89-53.64 2.4-11.05 5-23.13t5.25-24q2.63-12 5-23t4.13-20.24q13.53-2 27.55-4.47t27.25-5.95c-.09 4.31-.12 9.64-.12 16s.09 13.32.25 20.82.34 15.35.55 23.52.41 16.21.6 24.11q1.05 27.72 2.18 58.84-5.92 1.44-11.89 2.49zm-23.73-50.58c.54 0 1.5-.14 2.9-.31l4.39-.53 4.29-.53a15.38 15.38 0 0 0 2.78-.51c-.06-.8-.06-2.17 0-4.12s.1-4.17.11-6.66 0-5.2.1-8.16.09-5.84.15-8.67q0-10.26.36-22.17l-.08-17.51-3 .42-3.32 17.57z"/><path d="m334.45 220.52q5.55-31.68 10.55-62.25 2.16-12.68 4.34-26.72t4.07-27.78q1.9-13.77 3.39-26.57t2.59-23.54c3.65.3 7.56.54 11.76.72s8 .35 11.43.47 7.6.15 12.5.09q-4.65 26.25-7.84 43.06t-5.07 27.35q-1.89 10.51-3.48 20.25t-3.18 18.1q-1.59 8.35-2.75 14.23l4.1.33 35.32-119.19c4.12.19 8.31.3 12.6.33q5.73 0 12 .29t11.58 0q-4 9.78-8.28 21.59t-8.86 24.52q-4.59 12.7-9 25.89t-8.59 25.46q-9.63 28.85-19.43 59.24z"/><path d="m442.8 188.34 17.7-147.34 64.37-9.59c-.76 3.06-1.39 6.19-1.88 9.37-.52 2.64-1 5.37-1.43 8.21s-.8 5.36-1.07 7.57c-1.36.23-3.3.45-5.82.68l-8.08.71c-2.86.25-5.76.46-8.7.65l-7.68.48-4.86 37.11q6.31-.81 11.84-1.36 4.49-.48 9.2-.78t7-.64q-.47 5.79-.83 11.36t-1 11.37q-2 .35-6.64.73t-9.3.89q-5.31.54-11.65 1.14l-4.6 38.13 29.61-6.59-.66 23.56z"/><path d="m520.81 218.56q4.7-30.09 8.86-58.3 1.46-12.09 3.19-25t3.14-25.6q1.43-12.61 2.5-24.18t1.5-20.91c1.8.05 3.32 0 4.56 0l4.34-.22q2.89-.15 7-.46c2.75-.21 5.5-.46 8.26-.73s5.7-.57 8.87-.87q3.63 14.32 6.59 27.66l5.88 24q3 12.28 5.31 20.88.62-4.17 1.37-9.71t1.69-11.6q.95-6.06 1.77-12.22t1.74-12.3q2.22-13.56 4.62-28l25.08-4.38q-5.43 32-9.37 60.6-1.86 12.33-3.6 25t-3.23 24.22q-1.49 11.58-2.44 21.48t-1.44 16.53a44.81 44.81 0 0 0 -4.81 1.17l-9.61 2.67-10.84 3a65.59 65.59 0 0 0 -8.05 2.68q-2.08-16.47-4.28-31.29-.95-6.39-2-13.07t-2.21-12.85q-1.14-6.15-2.24-11.49c-.74-3.56-1.45-6.63-2.13-9.23q-.42 4-1.19 9.19t-1.52 11.06q-.74 5.85-1.45 12.21t-1.67 12.25q-2 14-4.32 29.25z"/><path d="m738.68 130.07q-6.49 17.33-16.32 29.3a71.6 71.6 0 0 1 -21.52 18.22q-11.7 6.24-22.46 6.81a36.31 36.31 0 0 1 -16-2.76 35.2 35.2 0 0 1 -13.57-10.18 55.31 55.31 0 0 1 -9.6-17.82 94.38 94.38 0 0 1 -4.5-25.61q-1.51-28.92 5.64-50.88t19.07-37q11.9-15 26-22.73t26.65-8.37a36.13 36.13 0 0 1 15.74 2.31 30.86 30.86 0 0 1 11.32 7.84 33.14 33.14 0 0 1 6.82 12 57.63 57.63 0 0 1 2.69 14.8l-30.41 7.45q-2.49-8.86-6.05-12.5a10 10 0 0 0 -7.83-3.4q-5.61.29-11.91 8.61a91.44 91.44 0 0 0 -11.44 21.2 170 170 0 0 0 -8.41 28.1 129 129 0 0 0 -2.92 29.83q.74 13.89 5.19 19.62t11 5.38a22.05 22.05 0 0 0 9.18-2.74 27.27 27.27 0 0 0 8.3-6.84 38.19 38.19 0 0 0 5.88-10 30.68 30.68 0 0 0 2.17-12.14l-23.8 4.85 3.03-22.42q10.46-1.89 20.48-3.78 8.46-1.56 17.9-3.64t16.55-3.79q-.36 22.97-6.87 40.28z"/><path d="m738.55 209.13 28.45-162.88 72.21-6.87q-1.56 5.06-2.65 10.32c-.73 2.91-1.43 5.92-2.08 9s-1.2 5.93-1.64 8.37q-2.28.25-6.51.4c-2.82.11-5.83.21-9 .32s-6.44.17-9.72.21l-8.58.08-7.61 41q7.08-.52 13.26-.81 5-.28 10.29-.33t7.77-.3q-.85 6.4-1.59 12.59t-1.83 12.59q-2.28.26-7.43.42t-10.4.44q-5.94.28-13 .58l-7.49 42.21 33.34-5.57-2 26.09z"/><path d="m835.93 182q5.05-30.61 9.72-59.85 1.61-12.42 3.63-25.88t3.72-26.71q1.7-13.21 3.19-25.56t2.27-22.39a162 162 0 0 1 27.89-7.08 234.59 234.59 0 0 1 29.87-3 45.13 45.13 0 0 1 14.78 1.52 21.27 21.27 0 0 1 9.35 5.5 21.89 21.89 0 0 1 5 8.63 42.8 42.8 0 0 1 1.78 11.14 52.18 52.18 0 0 1 -2.55 18.06 75.6 75.6 0 0 1 -8 17 85.81 85.81 0 0 1 -11.82 14.84 66.33 66.33 0 0 1 -14.49 11.18q4.44 9 9.53 19.67t9.55 20.37q5 11.26 10.2 22.51l-35 13.63q-5.12-14.46-9.23-27.13-1.8-5.19-3.59-10.73t-3.33-10.52q-1.56-5-2.62-9a52 52 0 0 1 -1.38-6.47l-2.94 1q-1.1 7.36-2.68 17.27t-2.86 19.09q-1.67 10.91-3.32 21.91zm50.07-101.17a32.22 32.22 0 0 0 10.5-4 74.62 74.62 0 0 0 11.71-8.1 67.5 67.5 0 0 0 9.49-9.61q3.94-4.95 3.81-8.61a5.25 5.25 0 0 0 -1.74-3.94 10.71 10.71 0 0 0 -4.55-2.12 31.25 31.25 0 0 0 -6.32-.8c-2.29-.07-4.66-.06-7.09 0-1.68.06-3.39.16-5.14.3s-3.31.23-4.68.28z"/><path d="m276.71 436.58q9-30.81 17.73-60.52 3.3-12.54 7.18-26.06t7.47-26.72q3.62-13.2 6.91-25.63t5.94-22.74l37.11 1.16q-5.44 15.54-10.92 32.47t-10.28 33l22.78-.27q4.78-15.84 8.79-30.72t9.7-30.64q5.33-.39 11.76-.33t11.93.15q5.51.09 13.09.15-4.22 9.93-8.26 21.82t-8.08 24.71q-4 12.81-7.86 26t-7.08 25q-7.87 28.41-15.2 58.25l-35.91.57q4.31-13.37 7.88-26.1 3.35-10.71 6.92-22.3t5.76-19.83l-22.28-.14q-2.44 8.49-5.74 19.65t-6.12 21.23q-3.74 12-7.45 24.08z"/><path d="m487.69 438.21-5.35 9.44a57.06 57.06 0 0 1 -12.92 15.79 54.55 54.55 0 0 1 -16.33 9.56 60.37 60.37 0 0 1 -17.68 3.67 35.75 35.75 0 0 1 -10.82-1.16 30.34 30.34 0 0 1 -10.09-4.62 27.79 27.79 0 0 1 -7.64-8.31 25.45 25.45 0 0 1 -3.5-12.18l-.09-1.83a7.2 7.2 0 0 1 .13-1.84q.42-9.41 1.79-22.76t2.9-27.86q1.53-14.5 3.52-29.15t3.54-26.64q1.55-12 2.74-19.95t1.55-9.81q4.77-.71 11.36-1.74t12.27-1.82q7.05-1 13.86-2.1-4.5 27.94-7.9 50.56-1.56 9.7-3 19.4t-2.74 17.77q-1.29 8.08-2.25 14t-1.56 9.59c-.41 2.46-.85 5.58-1.34 9.34a56.78 56.78 0 0 0 -.5 10.22 9.69 9.69 0 0 0 2.14 6 5.56 5.56 0 0 0 4.69 2.16 7.94 7.94 0 0 0 6.24-3.42 28 28 0 0 0 3.83-7.64 45.68 45.68 0 0 0 2.06-8.92q.57-4.5 1.12-7.05 1-6.69 2.32-14.89t2.54-17.08q1.26-8.88 2.5-18.1t2.38-18q2.84-20.3 5.37-42l34.6-4.09q-1.67 12-3 21.91t-2.84 22.59q-1.51 12.67-3.54 26.41t-4 27q-1.95 13.26-3.88 24.36c-1.65 8.8-2.48 13.19-2.48 13.19z"/><path d="m510.46 448.19q4.41-33.35 8.28-64.59 1.31-13.39 2.87-27.74t2.83-28.3q1.26-14 2.15-26.76t1-23.12c2 0 3.67 0 5-.14l4.79-.36q3.19-.24 7.74-.69t9.1-1c3-.37 6.28-.77 9.77-1.18q4.38 15.73 8 30.36l7.17 26.33q3.63 13.49 6.4 22.91.57-4.62 1.27-10.76t1.57-12.84q.87-6.7 1.63-13.54t1.63-13.53q2.1-15.06 4.35-31.05l27.57-5.49q-5.18 35.47-8.78 67.16-1.74 13.65-3.34 27.65t-2.94 26.82q-1.34 12.82-2.13 23.77t-1.16 18.32a51.06 51.06 0 0 0 -5.29 1.43q-4.59 1.37-10.54 3.18l-11.88 3.64a69.14 69.14 0 0 0 -8.82 3.18q-2.73-18.15-5.54-34.45-1.21-7-2.56-14.37t-2.77-14.13c-.94-4.52-1.87-8.72-2.77-12.64s-1.76-7.28-2.59-10.12q-.36 4.38-1.08 10.17c-.47 3.86-.94 7.94-1.38 12.25s-.87 8.82-1.29 13.51-.92 9.21-1.52 13.53q-1.83 15.51-4 32.41z"/><path d="m646.42 460.12q3.47-25.47 6.54-50.21 1.34-10.41 2.59-21.74t2.45-22.29q1.17-11 1.94-21.23t1.31-18.78a62.13 62.13 0 0 0 -10.64.29 31.43 31.43 0 0 1 -10.7-.62q0-3.66-.37-8.45t-.45-9.6c-.1-3.51-.2-7.24-.33-11.21q6 0 11.91-.15t11.88-.61q11.63-.82 22.43-2.16t20-2.79q9.18-1.44 18-3.21l-1.64 12.49q-.78 5.34-1.42 10.88c-.42 3.7-.85 6.86-1.27 9.49a66.35 66.35 0 0 1 -10 2.65q-5.08.94-10.05 2.2-1 7.88-2.2 17.47t-2.15 19.87c-.67 6.84-1.28 13.81-1.85 20.87s-1.17 13.84-1.78 20.3q-2.05 22.85-3.54 47.25z"/></g><path d="m93.19 151.77a56.47 56.47 0 0 1 -13.26 17.95 59.06 59.06 0 0 1 -19.67 11.67 70.87 70.87 0 0 1 -24.36 4.11 38.29 38.29 0 0 1 -18.29-4.91q-9.15-4.92-17.61-15.67l16.92-33.16a25.33 25.33 0 0 0 4.81 6.06 36.15 36.15 0 0 0 7.2 5.38 54 54 0 0 0 8 3.77 21 21 0 0 0 7.21 1.49 19.37 19.37 0 0 0 5.71-.92 18.59 18.59 0 0 0 5.49-2.74 15.13 15.13 0 0 0 4-4.23 10.53 10.53 0 0 0 1.49-5.57 16.51 16.51 0 0 0 -3.54-10.17 51.05 51.05 0 0 0 -8.81-8.92q-5.26-4.23-11.43-8.58a103.55 103.55 0 0 1 -11.32-9.15 51.8 51.8 0 0 1 -8.81-10.78 24.83 24.83 0 0 1 -3.66-13.27 38.41 38.41 0 0 1 7.09-22.13 70.13 70.13 0 0 1 17.73-17.78 93.87 93.87 0 0 1 23.21-11.77 72.81 72.81 0 0 1 23.78-4.35 44.53 44.53 0 0 1 11.67 1.49 24.83 24.83 0 0 1 9.49 4.8 24.32 24.32 0 0 1 6.4 8.35 29.16 29.16 0 0 1 2.37 12.58 36.43 36.43 0 0 1 -.57 6.4c-.38 2.14-.73 4.42-1 6.86l-33.16 9.61c.3-1.22.57-2.44.8-3.66a19.71 19.71 0 0 0 .34-3.66q0-6.87-2.4-9.95a7.59 7.59 0 0 0 -6.29-3.09 10.14 10.14 0 0 0 -4.46 1.37 31 31 0 0 0 -5.26 3.55 20.79 20.79 0 0 0 -4.46 5.14 12 12 0 0 0 -1.83 6.41 13.7 13.7 0 0 0 3.09 9.15 39.61 39.61 0 0 0 7.66 6.85q4.58 3.21 10 6.52a43.46 43.46 0 0 1 10 8.58 44.68 44.68 0 0 1 7.54 13.15q3.09 7.89 3.09 20a53.59 53.59 0 0 1 -4.9 23.22z" fill="url(#a)"/><path d="m190.2 167.81a88.5 88.5 0 0 1 -15.26 14.49 54.06 54.06 0 0 1 -15.6 8.17 39.71 39.71 0 0 1 -14.81 1.91 26.24 26.24 0 0 1 -12.66-4.11 29.6 29.6 0 0 1 -9.46-10.27 53.73 53.73 0 0 1 -5.83-16.24 81.82 81.82 0 0 1 -1-22.09 154.41 154.41 0 0 1 9-41.89 139.43 139.43 0 0 1 19.34-36.32 93.93 93.93 0 0 1 27.36-25 56.12 56.12 0 0 1 33.24-7.81 25.14 25.14 0 0 1 10.33 3 25.89 25.89 0 0 1 8.21 7 31 31 0 0 1 5.09 10.46 38.37 38.37 0 0 1 1.22 13.38l-.21 2.85a21.34 21.34 0 0 1 -.45 3.06l-30.45 5.84q-2.33-5.9-6-6.16t-7.94 3.67a58.61 58.61 0 0 0 -8.66 10.39 154.22 154.22 0 0 0 -8.66 14.53q-4.25 8.07-7.59 16.31t-5.6 15.76a59.49 59.49 0 0 0 -2.61 12.31q-.52 7.3 1.21 10.4a5.87 5.87 0 0 0 4.92 3.33 11.26 11.26 0 0 0 5.84-1.53 25.6 25.6 0 0 0 6.29-4.59 44.67 44.67 0 0 0 5.52-6.59 28.47 28.47 0 0 0 3.75-7.53l25.27 12.36a115.49 115.49 0 0 1 -13.8 20.91z" fill="url(#b)"/><path d="m292.73 166.87-10.68 2.61q.3-6.66.63-13.13c.12-3.77.21-7.53.26-11.3s.12-7 .18-9.68l-17.41 1.31-5.86 29.43q-4.37.93-10.31 2.08l-11.12 2.14q-6.34 1.28-12.49 2.54 6-27.23 11.89-53.64 2.4-11.06 5-23.13t5.25-24q2.63-12 5-23t4.13-20.24q13.53-2 27.55-4.47t27.25-5.95c-.09 4.31-.12 9.64-.12 16s.09 13.32.25 20.82.34 15.35.55 23.52.41 16.21.6 24.11q1.05 27.72 2.18 58.84-5.92 1.44-11.89 2.49zm-23.73-50.58c.54 0 1.5-.14 2.9-.31l4.39-.53 4.29-.53a15.38 15.38 0 0 0 2.78-.51c-.06-.8-.06-2.17 0-4.12s.1-4.17.11-6.66 0-5.2.1-8.16.09-5.84.15-8.67q0-10.26.36-22.17l-.08-17.51-3 .42-3.32 17.57z" fill="url(#c)"/><path d="m322.45 211.52q5.55-31.68 10.55-62.25 2.16-12.68 4.34-26.72t4.07-27.78q1.9-13.77 3.39-26.57t2.59-23.54c3.65.3 7.56.54 11.76.72s8 .35 11.43.47 7.6.15 12.5.09q-4.65 26.25-7.84 43.06t-5.07 27.35q-1.89 10.51-3.48 20.25t-3.18 18.1q-1.59 8.35-2.75 14.23l4.1.33 35.32-119.19c4.12.19 8.31.3 12.6.33q5.73 0 12 .29t11.58 0q-4 9.78-8.28 21.59t-8.86 24.52q-4.59 12.7-9 25.89t-8.59 25.46q-9.63 28.85-19.43 59.24z" fill="url(#d)"/><path d="m430.8 179.34 17.7-147.34 64.37-9.59c-.76 3.06-1.39 6.19-1.88 9.37-.52 2.64-1 5.37-1.43 8.21s-.8 5.36-1.07 7.57c-1.36.23-3.3.45-5.82.68l-8.08.71c-2.86.25-5.76.46-8.7.65l-7.68.48-4.86 37.11q6.31-.81 11.84-1.36 4.49-.48 9.2-.78t6.95-.64q-.46 5.79-.83 11.36t-1 11.37q-2 .35-6.64.73t-9.3.89q-5.31.54-11.65 1.14l-4.6 38.13 29.61-6.59-.61 23.56z" fill="url(#e)"/><path d="m508.81 209.56q4.69-30.09 8.86-58.3 1.46-12.09 3.19-25t3.14-25.6q1.43-12.61 2.5-24.18t1.5-20.91h4.56l4.34-.22q2.89-.15 7-.46c2.75-.21 5.5-.46 8.26-.73s5.7-.57 8.87-.87q3.63 14.32 6.59 27.66l5.88 24q3 12.28 5.31 20.88.62-4.17 1.37-9.71t1.69-11.6q.95-6.06 1.77-12.22t1.74-12.3q2.22-13.56 4.62-28l25.08-4.38q-5.43 32-9.37 60.6-1.86 12.33-3.6 25t-3.23 24.22q-1.49 11.58-2.44 21.48t-1.44 16.53a44.81 44.81 0 0 0 -4.81 1.17l-9.61 2.67-10.84 3a65.59 65.59 0 0 0 -8.05 2.68q-2.08-16.47-4.28-31.29-.95-6.39-2-13.07t-2.21-12.85q-1.14-6.15-2.24-11.49c-.74-3.56-1.45-6.63-2.13-9.23q-.42 4-1.19 9.19t-1.52 11.06q-.74 5.85-1.45 12.21t-1.67 12.25q-2 14-4.32 29.25z" fill="url(#f)"/><path d="m726.68 121.07q-6.49 17.33-16.32 29.3a71.6 71.6 0 0 1 -21.52 18.22q-11.7 6.24-22.46 6.81a36.31 36.31 0 0 1 -16-2.76 35.2 35.2 0 0 1 -13.57-10.18 55.31 55.31 0 0 1 -9.6-17.82 94.38 94.38 0 0 1 -4.5-25.61q-1.51-28.92 5.64-50.88t19.07-37q11.9-15 26-22.73t26.65-8.35a36.13 36.13 0 0 1 15.74 2.31 30.86 30.86 0 0 1 11.32 7.84 33.14 33.14 0 0 1 6.82 12 57.63 57.63 0 0 1 2.69 14.78l-30.41 7.45q-2.49-8.86-6.05-12.5a10 10 0 0 0 -7.83-3.4q-5.61.29-11.91 8.61a91.44 91.44 0 0 0 -11.44 21.2 170 170 0 0 0 -8.41 28.1 129 129 0 0 0 -2.92 29.83q.74 13.89 5.19 19.62t11 5.38a22.05 22.05 0 0 0 9.18-2.74 27.27 27.27 0 0 0 8.3-6.84 38.19 38.19 0 0 0 5.88-10 30.68 30.68 0 0 0 2.17-12.14l-23.8 4.85 3.03-22.42q10.46-1.89 20.48-3.78 8.46-1.56 17.9-3.64t16.55-3.79q-.36 22.97-6.87 40.28z" fill="url(#g)"/><path d="m726.55 200.13 28.45-162.88 72.21-6.87q-1.56 5.06-2.65 10.32c-.73 2.91-1.43 5.92-2.08 9s-1.2 5.93-1.64 8.37q-2.28.26-6.51.4c-2.82.11-5.83.21-9 .32s-6.44.17-9.72.21l-8.58.08-7.61 41q7.08-.52 13.26-.81 5-.28 10.29-.33t7.77-.3q-.85 6.4-1.59 12.59t-1.83 12.59q-2.28.25-7.43.42t-10.4.44q-5.94.29-13 .58l-7.49 42.21 33.34-5.57-2 26.09z" fill="url(#h)"/><path d="m823.93 173q5.05-30.61 9.72-59.85 1.61-12.42 3.63-25.88t3.72-26.71q1.7-13.21 3.19-25.56t2.27-22.39a162 162 0 0 1 27.89-7.08 234.59 234.59 0 0 1 29.87-3 45.13 45.13 0 0 1 14.78 1.52 21.27 21.27 0 0 1 9.35 5.5 21.89 21.89 0 0 1 5 8.63 42.8 42.8 0 0 1 1.78 11.14 52.18 52.18 0 0 1 -2.55 18.06 75.6 75.6 0 0 1 -8 17 85.81 85.81 0 0 1 -11.82 14.84 66.33 66.33 0 0 1 -14.49 11.18q4.44 9 9.53 19.67t9.55 20.37q5 11.26 10.2 22.51l-35 13.63q-5.12-14.46-9.23-27.13-1.8-5.19-3.59-10.73t-3.33-10.52q-1.56-5-2.62-9a52 52 0 0 1 -1.38-6.47l-2.94 1q-1.1 7.36-2.68 17.27t-2.86 19.09q-1.67 10.91-3.32 21.91zm50.07-101.17a32.22 32.22 0 0 0 10.5-4 74.62 74.62 0 0 0 11.71-8.1 67.5 67.5 0 0 0 9.49-9.61q3.94-4.95 3.81-8.61a5.25 5.25 0 0 0 -1.74-3.94 10.71 10.71 0 0 0 -4.55-2.12 31.25 31.25 0 0 0 -6.32-.8c-2.29-.07-4.66-.06-7.09 0-1.68.06-3.39.16-5.14.3s-3.31.23-4.68.28z" fill="url(#i)"/><path d="m264.71 427.58q9-30.81 17.73-60.52 3.3-12.54 7.18-26.06t7.47-26.72q3.62-13.2 6.91-25.63t5.94-22.74l37.11 1.16q-5.44 15.54-10.92 32.47t-10.28 33l22.78-.27q4.78-15.84 8.79-30.72t9.7-30.64q5.33-.39 11.76-.33t11.93.15q5.51.09 13.09.15-4.22 9.93-8.26 21.82t-8.08 24.71q-4 12.81-7.86 26t-7.08 25q-7.87 28.41-15.2 58.25l-35.91.57q4.31-13.37 7.88-26.1 3.35-10.71 6.92-22.3t5.76-19.83l-22.28-.14q-2.44 8.49-5.74 19.65t-6.12 21.23q-3.74 12-7.45 24.08z" fill="url(#j)"/><path d="m475.69 429.21-5.35 9.44a57.06 57.06 0 0 1 -12.92 15.79 54.55 54.55 0 0 1 -16.33 9.56 60.37 60.37 0 0 1 -17.68 3.67 35.75 35.75 0 0 1 -10.82-1.16 30.34 30.34 0 0 1 -10.09-4.62 27.79 27.79 0 0 1 -7.64-8.31 25.45 25.45 0 0 1 -3.5-12.18l-.09-1.83a7.2 7.2 0 0 1 .13-1.84q.42-9.41 1.79-22.76t2.9-27.86q1.53-14.5 3.52-29.15t3.54-26.64q1.55-12 2.74-19.95t1.55-9.81q4.77-.71 11.36-1.74t12.27-1.82q7.05-1 13.86-2.1-4.5 27.94-7.9 50.56-1.56 9.7-3 19.4t-2.74 17.77q-1.29 8.08-2.25 14t-1.56 9.59c-.41 2.46-.85 5.58-1.34 9.34a56.78 56.78 0 0 0 -.5 10.22 9.69 9.69 0 0 0 2.14 6 5.56 5.56 0 0 0 4.69 2.16 7.94 7.94 0 0 0 6.24-3.42 28 28 0 0 0 3.83-7.64 45.68 45.68 0 0 0 2.06-8.92q.57-4.5 1.12-7.05 1-6.69 2.32-14.89t2.54-17.08q1.26-8.88 2.5-18.1t2.38-18q2.84-20.3 5.37-42l34.6-4.09q-1.67 12-3 21.91t-2.84 22.59q-1.51 12.67-3.54 26.41t-4 27q-1.95 13.26-3.88 24.36c-1.65 8.8-2.48 13.19-2.48 13.19z" fill="url(#k)"/><path d="m498.46 439.19q4.41-33.35 8.28-64.59 1.31-13.39 2.87-27.74t2.83-28.3q1.26-14 2.15-26.76t1-23.12c2 0 3.67 0 5-.14l4.79-.36q3.19-.24 7.74-.69t9.1-1c3-.37 6.28-.77 9.77-1.18q4.38 15.73 8 30.36l7.17 26.33q3.63 13.49 6.4 22.91.57-4.62 1.27-10.76t1.57-12.84q.87-6.7 1.63-13.54t1.63-13.53q2.1-15.06 4.35-31.05l27.57-5.49q-5.18 35.47-8.78 67.16-1.74 13.65-3.34 27.65t-2.94 26.82q-1.34 12.82-2.13 23.77t-1.16 18.32a51.06 51.06 0 0 0 -5.29 1.43q-4.59 1.37-10.54 3.18l-11.88 3.64a69.14 69.14 0 0 0 -8.82 3.18q-2.73-18.15-5.54-34.45-1.21-7-2.56-14.37t-2.77-14.13c-.94-4.52-1.87-8.72-2.77-12.64s-1.76-7.28-2.59-10.12q-.36 4.38-1.08 10.17c-.47 3.86-.94 7.94-1.38 12.25s-.87 8.82-1.29 13.51-.92 9.21-1.52 13.53q-1.83 15.51-4 32.41z" fill="url(#l)"/><path d="m634.42 451.12q3.47-25.47 6.54-50.21 1.34-10.41 2.59-21.74t2.45-22.29q1.17-11 1.94-21.23t1.31-18.78a62.13 62.13 0 0 0 -10.64.29 31.43 31.43 0 0 1 -10.7-.62q0-3.66-.37-8.45t-.45-9.6c-.1-3.51-.2-7.24-.33-11.21q6 0 11.91-.15t11.88-.61q11.63-.82 22.43-2.16t20-2.79q9.18-1.44 18-3.21l-1.64 12.49q-.78 5.34-1.42 10.88c-.42 3.7-.85 6.86-1.27 9.49a66.35 66.35 0 0 1 -10 2.65q-5.08.94-10.05 2.2-1 7.88-2.2 17.47t-2.15 19.87c-.67 6.84-1.28 13.81-1.85 20.87s-1.17 13.84-1.78 20.3q-2.05 22.85-3.54 47.25z" fill="url(#m)"/></svg>