<?xml version="1.0" standalone="no"?>
<!DOCTYPE svg PUBLIC "-//W3C//DTD SVG 20010904//EN"
 "http://www.w3.org/TR/2001/REC-SVG-20010904/DTD/svg10.dtd">
<svg version="1.0" xmlns="http://www.w3.org/2000/svg"
 width="270.000000pt" height="270.000000pt" viewBox="0 0 270.000000 270.000000"
 preserveAspectRatio="xMidYMid meet">
<metadata>
Created by potrace 1.11, written by Peter Selinger 2001-2013
</metadata>
<g transform="translate(0.000000,270.000000) scale(0.100000,-0.100000)"
fill="#000000" stroke="none">
<path d="M293 2206 c-76 -18 -170 -63 -238 -114 l-50 -38 -3 -1017 -2 -1017
26 -10 c16 -6 364 -10 926 -10 l901 0 -7 192 c-12 352 -26 523 -46 603 -54
210 -191 382 -358 446 -62 24 -190 31 -269 16 l-43 -9 0 54 c-1 501 -297 895
-685 914 -57 2 -113 -1 -152 -10z"/>
</g>
</svg>
