<svg height="2208" viewBox="0 0 1242 2208" width="1242" xmlns="http://www.w3.org/2000/svg" xmlns:xlink="http://www.w3.org/1999/xlink"><linearGradient id="a" gradientUnits="userSpaceOnUse" x1="-144.53" x2="1337.17" y1="2365.47" y2="-80.78"><stop offset="0" stop-color="#e2d536"/><stop offset=".13" stop-color="#e9dd57"/><stop offset=".31" stop-color="#f1e67d"/><stop offset=".49" stop-color="#f7ee9a"/><stop offset=".67" stop-color="#fbf3af"/><stop offset=".84" stop-color="#fef6bc"/><stop offset="1" stop-color="#fff7c0"/></linearGradient><clipPath id="b"><path d="m-34.31-104h1293.63v396.51h-1293.63z"/></clipPath><path d="m-7-18h1264v2226h-1264z" fill="url(#a)"/><ellipse cx="112.67" cy="2056.93" fill="#d7ba7a" rx="321.57" ry="182.37"/><ellipse cx="113.15" cy="2080.18" fill="#74bf43" rx="376.66" ry="213.61"/><path d="m434.88 2052.19c-9 248.52-619.79 244-643.75 10.48-15.14-147.61 2-443.88 2-443.88 0-216.13 139.94-391.33 312.56-391.33 173.51 0 314.17 176.11 314.17 393.34.02 0 14.83 179.87 15.02 431.39z" fill="#009719"/><rect fill="#1e5c12" height="215.57" rx="34.92" width="69.83" x="80.38" y="1513.8"/><rect fill="#1e5c12" height="215.57" rx="34.92" width="69.83" x="213.97" y="1513.8"/><path d="m-99.44 2194.51c-40-13.66-103.44-73.45-109.43-131.84-15.14-147.61 2-443.88 2-443.88 0-216.13 139.94-391.33 312.56-391.33.02 0-282.93-52.6-205.13 967.05z" fill="#1e5c12" opacity=".2"/><ellipse cx="602.91" cy="2277.41" fill="#d7ba7a" rx="301.32" ry="170.88"/><ellipse cx="603.35" cy="2299.2" fill="#74bf43" rx="352.94" ry="200.16"/><path d="m904.83 2273c-8.42 232.87-580.77 228.66-603.21 9.82-14.19-138.32 1.89-415.93 1.89-415.93 0-202.52 131.13-366.69 292.88-366.69 162.58 0 294.38 165 294.38 368.57 0-.03 13.89 168.52 14.06 404.23z" fill="#81ca14"/><rect fill="#1e5c12" height="202" opacity=".4" rx="32.72" width="65.44" x="423.99" y="1768.48"/><rect fill="#1e5c12" height="202" opacity=".4" rx="32.72" width="65.44" x="549.17" y="1768.48"/><path d="m794 2411.12c51.51-20.37 108.32-72.94 109.81-127.92 4-148-13.18-412.71-13.18-412.71-.55-208.29-132-369.36-293.74-369.36.02 0 270.04-45.45 197.11 909.99z" fill="#1e5c12" opacity=".2"/><path d="m252.59 577.94a56.35 56.35 0 0 1 -13.27 17.95 59 59 0 0 1 -19.67 11.66 70.54 70.54 0 0 1 -24.35 4.12 38.34 38.34 0 0 1 -18.3-4.92q-9.15-4.9-17.61-15.66l16.93-33.16a25 25 0 0 0 4.8 6.06 35.72 35.72 0 0 0 7.2 5.37 53.54 53.54 0 0 0 8 3.77 20.68 20.68 0 0 0 7.2 1.49 19.41 19.41 0 0 0 5.72-.91 18.62 18.62 0 0 0 5.49-2.75 15.09 15.09 0 0 0 4-4.23 10.44 10.44 0 0 0 1.49-5.6 16.57 16.57 0 0 0 -3.54-10.13 51.68 51.68 0 0 0 -8.8-8.92q-5.26-4.23-11.44-8.57a107 107 0 0 1 -11.32-9.15 51.23 51.23 0 0 1 -8.8-10.75 24.77 24.77 0 0 1 -3.66-13.26 38.36 38.36 0 0 1 7.09-22.19 69.89 69.89 0 0 1 17.72-17.72 94.08 94.08 0 0 1 23.21-11.78 73.15 73.15 0 0 1 23.79-4.34 44.51 44.51 0 0 1 11.66 1.48 25 25 0 0 1 9.49 4.81 24.16 24.16 0 0 1 6.4 8.34 29 29 0 0 1 2.41 12.58 36.56 36.56 0 0 1 -.58 6.41q-.57 3.19-1 6.86l-33.17 9.6c.31-1.22.58-2.44.8-3.66a19.64 19.64 0 0 0 .35-3.66q0-6.86-2.4-9.95a7.61 7.61 0 0 0 -6.29-3.08 10 10 0 0 0 -4.46 1.37 30.14 30.14 0 0 0 -5.26 3.54 20.63 20.63 0 0 0 -4.46 5.15 12 12 0 0 0 -1.83 6.4 13.7 13.7 0 0 0 3.09 9.15 39.65 39.65 0 0 0 7.66 6.86q4.57 3.21 9.95 6.52a43.42 43.42 0 0 1 9.94 8.58 44.63 44.63 0 0 1 7.67 13.14q3.08 7.89 3.08 20a53.79 53.79 0 0 1 -4.93 23.18z" fill="#3b1568"/><path d="m349.59 594a88.53 88.53 0 0 1 -15.25 14.5 54 54 0 0 1 -15.61 8.16 39.73 39.73 0 0 1 -14.81 1.92 26.43 26.43 0 0 1 -12.66-4.12 29.52 29.52 0 0 1 -9.46-10.31 53.8 53.8 0 0 1 -5.8-16.27 81.76 81.76 0 0 1 -1.05-22.08 154.78 154.78 0 0 1 9-41.89 139.22 139.22 0 0 1 19.35-36.33 93.64 93.64 0 0 1 27.36-25 56.15 56.15 0 0 1 33.23-7.82 25.15 25.15 0 0 1 10.33 3 25.76 25.76 0 0 1 8.21 7 31.17 31.17 0 0 1 5.1 10.45 38.46 38.46 0 0 1 1.21 13.39l-.2 2.85a22.85 22.85 0 0 1 -.45 3.06l-30.46 5.84q-2.32-5.9-6-6.16t-8 3.67a58.13 58.13 0 0 0 -8.63 10.46 153.17 153.17 0 0 0 -8.61 14.52 176 176 0 0 0 -7.59 16.3q-3.35 8.25-5.61 15.76a60.29 60.29 0 0 0 -2.6 12.31q-.52 7.31 1.2 10.41a5.9 5.9 0 0 0 4.92 3.33 11.34 11.34 0 0 0 5.84-1.53 26.13 26.13 0 0 0 6.29-4.59 43.65 43.65 0 0 0 5.52-6.6 28 28 0 0 0 3.75-7.52l25.25 12.36a115 115 0 0 1 -13.77 20.93z" fill="#3b1568"/><path d="m452.12 593-10.68 2.61c.21-4.45.42-8.82.63-13.14.13-3.76.21-7.53.27-11.29s.11-7 .18-9.68l-17.42 1.3-5.85 29.43q-4.37.93-10.32 2.08l-11.11 2.14-12.5 2.55q6-27.22 11.9-53.65 2.38-11 5-23.12t5.25-24q2.63-12 5-23t4.16-20.23q13.55-2 27.55-4.48t27.25-5.86q-.12 6.45-.11 16t.25 20.83q.23 11.25.55 23.51t.59 24.12q1.07 27.7 2.18 58.83-5.92 1.46-11.89 2.5-4.95 1.15-10.88 2.55zm-23.71-50.58c.53 0 1.5-.15 2.89-.32l4.39-.53 4.29-.52a16.34 16.34 0 0 0 2.78-.51c-.06-.8-.06-2.18 0-4.13s.09-4.16.11-6.65 0-5.2.09-8.16.1-5.85.16-8.67q0-10.28.35-22.17l-.1-17.52-3 .43-3.31 17.56z" fill="#3b1568"/><path d="m481.84 637.68q5.54-31.66 10.53-62.24 2.17-12.68 4.34-26.73t4.08-27.77q1.9-13.73 3.41-26.57t2.59-23.54q5.46.44 11.75.72c4.19.19 8 .34 11.44.46s7.59.16 12.49.1q-4.63 26.24-7.83 43.07t-5.08 27.35q-1.87 10.51-3.47 20.26t-3.18 18.09c-1.07 5.58-2 10.32-2.76 14.24l4.1.33 35.33-119.21q6.17.27 12.59.33 5.73 0 12 .28t11.59 0q-4 9.78-8.29 21.59t-8.84 24.56q-4.59 12.71-9 25.89t-8.6 25.46q-9.67 28.81-19.46 59.23z" fill="#3b1568"/><path d="m590.2 605.51 17.69-147.32 64.38-9.59q-1.15 4.61-1.88 9.37-.78 4-1.44 8.22c-.44 2.84-.79 5.36-1.07 7.57-1.36.22-3.3.45-5.81.67l-8.08.72q-4.31.38-8.7.64l-7.68.48-4.87 37.12q6.32-.81 11.84-1.36 4.49-.5 9.2-.79t7-.64q-.47 5.79-.83 11.36t-1 11.38q-2 .33-6.64.72c-3.06.27-6.16.56-9.3.9q-5.31.54-11.64 1.14l-4.6 38.12 29.6-6.58-.58 23.47z" fill="#3b1568"/><path d="m668.21 635.73q4.68-30.11 8.86-58.3 1.45-12.1 3.18-25t3.16-25.56q1.44-12.62 2.51-24.18t1.43-20.91q2.68.06 4.56 0l4.34-.22q2.89-.15 7-.46t8.26-.73l8.87-.86q3.62 14.26 6.62 27.58 2.88 11.67 5.88 24t5.31 20.88q.62-4.17 1.38-9.71t1.69-11.59q.93-6.06 1.76-12.22t1.77-12.22q2.21-13.59 4.59-28l25.07-4.38q-5.43 32-9.36 60.61-1.87 12.33-3.61 25t-3.23 24.21q-1.49 11.59-2.43 21.48t-1.44 16.56a46.15 46.15 0 0 0 -4.82 1.18c-2.79.76-6 1.65-9.6 2.66l-10.84 3a63.85 63.85 0 0 0 -8.06 2.69q-2.07-16.48-4.28-31.3-.94-6.37-2-13.06t-2.23-12.88q-1.14-6.16-2.24-11.5c-.73-3.55-1.44-6.63-2.13-9.22q-.42 4-1.19 9.18t-1.51 11.07q-.75 5.85-1.45 12.2t-1.66 12.22q-2 14-4.33 29.25z" fill="#3b1568"/><path d="m886.08 547.24q-6.51 17.32-16.33 29.3a71.5 71.5 0 0 1 -21.52 18.22q-11.7 6.22-22.46 6.8a36.09 36.09 0 0 1 -16-2.75 35.16 35.16 0 0 1 -13.58-10.19 55.16 55.16 0 0 1 -9.59-17.81 94.39 94.39 0 0 1 -4.5-25.62q-1.53-28.92 5.63-50.88t19.07-37q11.91-15 26-22.73t26.65-8.38a36.15 36.15 0 0 1 15.75 2.32 30.68 30.68 0 0 1 11.31 7.83 33.12 33.12 0 0 1 6.82 12 56.79 56.79 0 0 1 2.69 14.8l-30.4 7.45q-2.49-8.85-6.06-12.49a10 10 0 0 0 -7.82-3.41q-5.61.3-11.91 8.61a91 91 0 0 0 -11.47 21.18 169.86 169.86 0 0 0 -8.36 28.13 129.12 129.12 0 0 0 -3 29.83q.74 13.9 5.2 19.62t11 5.38a22.18 22.18 0 0 0 9.19-2.73 27.39 27.39 0 0 0 8.29-6.85 38.13 38.13 0 0 0 5.88-10 30.55 30.55 0 0 0 2.17-12.15l-23.8 4.86 3.07-22.39q10.47-1.91 20.48-3.78 8.46-1.56 17.91-3.64t16.61-3.77q-.42 22.92-6.92 40.24z" fill="#3b1568"/><path d="m886 626.29 28.4-162.87 72.2-6.87c-1 3.37-1.91 6.8-2.64 10.32-.74 2.9-1.43 5.92-2.09 9.05s-1.2 5.92-1.63 8.36q-2.3.25-6.52.41l-9 .31q-4.8.17-9.72.21l-8.57.08-7.61 41q7.08-.52 13.25-.81 5-.27 10.29-.33t7.77-.3q-.85 6.42-1.59 12.59t-1.82 12.6c-1.53.17-4 .31-7.43.41s-6.9.26-10.4.45q-6 .29-13 .58l-7.37 42.15 33.34-5.58-2 26.09z" fill="#3b1568"/><path d="m983.32 599.14q5.07-30.61 9.72-59.86 1.61-12.4 3.64-25.87t3.72-26.69q1.68-13.22 3.19-25.51t2.27-22.4a161.71 161.71 0 0 1 27.89-7.08 234.37 234.37 0 0 1 29.87-3 44.77 44.77 0 0 1 14.81 1.52 21.39 21.39 0 0 1 9.36 5.49 22 22 0 0 1 5 8.63 42.46 42.46 0 0 1 1.78 11.15 52.18 52.18 0 0 1 -2.55 18.06 75.09 75.09 0 0 1 -8 17 85.92 85.92 0 0 1 -11.81 14.85 66.57 66.57 0 0 1 -14.59 11.17q4.46 9 9.53 19.68t9.55 20.36q5 11.26 10.2 22.51l-35 13.63q-5.1-14.44-9.23-27.12-1.79-5.19-3.59-10.74t-3.36-10.52c-1-3.31-1.91-6.3-2.61-8.94a50.22 50.22 0 0 1 -1.38-6.47l-2.94 1q-1.11 7.37-2.69 17.26t-2.85 19.1q-1.67 10.81-3.32 21.86zm50.1-101.14q4.32-.6 10.49-4a74 74 0 0 0 11.72-8.09 68.09 68.09 0 0 0 9.49-9.62q3.93-5 3.8-8.6a5.19 5.19 0 0 0 -1.74-3.94 10.79 10.79 0 0 0 -4.54-2.13 31.34 31.34 0 0 0 -6.32-.8c-2.29-.06-4.66-.06-7.1 0-1.67.06-3.39.17-5.13.3s-3.31.24-4.68.29z" fill="#3b1568"/><path d="m424.11 853.75q9-30.82 17.72-60.52 3.32-12.54 7.18-26.06t7.48-26.72q3.6-13.2 6.91-25.63t5.93-22.74l37.12 1.15q-5.45 15.56-10.92 32.47t-10.29 33l22.78-.27q4.78-15.84 8.8-30.73t9.7-30.64q5.33-.37 11.75-.32t11.94.15q5.5.08 13.08.14-4.2 9.93-8.25 21.82t-8.04 24.71q-4 12.83-7.87 26t-7.08 25q-7.87 28.41-15.2 58.24l-35.91.58q4.32-13.36 7.88-26.11 3.36-10.69 6.92-22.29t5.77-19.89l-22.32-.09q-2.46 8.5-5.74 19.66t-6.13 21.22q-3.72 12-7.45 24.08z" fill="#3b1568"/><path d="m635.08 855.38-5.35 9.44a56.84 56.84 0 0 1 -12.92 15.78 54.25 54.25 0 0 1 -16.33 9.56 60.55 60.55 0 0 1 -17.67 3.66 35.67 35.67 0 0 1 -10.81-1.15 30.07 30.07 0 0 1 -10.1-4.67 27.91 27.91 0 0 1 -7.65-8.3 25.34 25.34 0 0 1 -3.49-12.19l-.1-1.82a7.64 7.64 0 0 1 .13-1.84q.44-9.42 1.8-22.77t2.9-27.86q1.53-14.5 3.52-29.15t3.53-26.63q1.56-12 2.74-20t1.55-9.82q4.77-.71 11.36-1.73t12.28-1.79l13.86-2.09q-4.51 27.95-7.91 50.56-1.54 9.71-3 19.39t-2.74 17.78q-1.31 8.08-2.25 14l-1.56 9.58c-.41 2.47-.86 5.58-1.35 9.35a56.78 56.78 0 0 0 -.52 10.33 9.72 9.72 0 0 0 2.14 5.95 5.53 5.53 0 0 0 4.7 2.16 7.9 7.9 0 0 0 6.23-3.41 27.82 27.82 0 0 0 3.84-7.65 46.21 46.21 0 0 0 2-8.92c.38-3 .76-5.34 1.13-7q1-6.69 2.31-14.89t2.65-17.17q1.24-8.88 2.49-18.11t2.38-18q2.83-20.29 5.38-42l34.59-4.09q-1.67 12-3 21.91t-2.84 22.65q-1.51 12.68-3.55 26.4t-4 27q-1.93 13.27-3.88 24.36z" fill="#3b1568"/><path d="m657.86 865.36q4.41-33.36 8.28-64.6 1.29-13.39 2.86-27.76t2.83-28.3q1.26-14 2.14-26.76t1-23.12c2 0 3.66-.05 5-.15l4.79-.35q3.2-.24 7.75-.69t9.09-1c3-.38 6.29-.77 9.78-1.19q4.37 15.74 8 30.37 3.48 12.81 7.11 26.3t6.51 22.89q.57-4.63 1.26-10.76t1.57-12.84q.88-6.72 1.63-13.54t1.64-13.54q2.09-15.06 4.34-31.05l27.56-5.44q-5.16 35.46-8.77 67.15-1.74 13.66-3.34 27.65t-2.94 26.82q-1.35 12.82-2.13 23.78t-1.17 18.32a46.49 46.49 0 0 0 -5.28 1.42q-4.61 1.38-10.54 3.19l-11.89 3.63a71.36 71.36 0 0 0 -8.82 3.18q-2.72-18.13-5.54-34.44c-.8-4.68-1.66-9.47-2.55-14.38s-1.83-9.61-2.77-14.12-1.87-8.73-2.77-12.64-1.77-7.28-2.59-10.13q-.36 4.4-1.08 10.17t-1.38 12.26q-.67 6.48-1.29 13.51t-1.52 13.53q-1.85 15.49-4 32.4z" fill="#3b1568"/><path d="m793.81 877.28q3.48-25.46 6.55-50.21 1.32-10.41 2.59-21.73t2.44-22.3q1.17-11 1.94-21.23t1.31-18.81a62.1 62.1 0 0 0 -10.64.29 31.47 31.47 0 0 1 -10.71-.62q0-3.66-.37-8.46t-.44-9.59q-.15-5.26-.34-11.21 6 0 11.91-.16t11.88-.61q11.64-.81 22.43-2.15t20-2.79q9.18-1.44 18-3.22l-1.66 12.52c-.52 3.55-1 7.18-1.41 10.87s-.86 6.87-1.28 9.49a66.26 66.26 0 0 1 -10.01 2.64q-5.1.93-10 2.2-1.05 7.86-2.21 17.46t-2.15 19.87q-1 10.27-1.85 20.88t-1.79 20.34q-2.1 22.85-3.58 47.25z" fill="#3b1568"/><path d="m240.59 568.94a56.35 56.35 0 0 1 -13.27 17.95 59 59 0 0 1 -19.67 11.66 70.54 70.54 0 0 1 -24.35 4.12 38.34 38.34 0 0 1 -18.3-4.92q-9.15-4.9-17.61-15.66l16.93-33.16a25 25 0 0 0 4.8 6.06 35.72 35.72 0 0 0 7.2 5.37 53.54 53.54 0 0 0 8 3.77 20.68 20.68 0 0 0 7.2 1.49 19.41 19.41 0 0 0 5.72-.91 18.62 18.62 0 0 0 5.49-2.75 15.09 15.09 0 0 0 4-4.23 10.44 10.44 0 0 0 1.49-5.6 16.57 16.57 0 0 0 -3.54-10.13 51.68 51.68 0 0 0 -8.8-8.92q-5.26-4.23-11.44-8.57a107 107 0 0 1 -11.32-9.15 51.23 51.23 0 0 1 -8.8-10.75 24.77 24.77 0 0 1 -3.66-13.26 38.36 38.36 0 0 1 7.09-22.19 69.89 69.89 0 0 1 17.72-17.72 94.08 94.08 0 0 1 23.21-11.78 73.15 73.15 0 0 1 23.79-4.34 44.51 44.51 0 0 1 11.66 1.48 25 25 0 0 1 9.49 4.81 24.16 24.16 0 0 1 6.4 8.34 29 29 0 0 1 2.41 12.58 36.56 36.56 0 0 1 -.58 6.41q-.57 3.19-1 6.86l-33.17 9.6c.31-1.22.58-2.44.8-3.66a19.64 19.64 0 0 0 .35-3.66q0-6.86-2.4-9.95a7.61 7.61 0 0 0 -6.29-3.08 10 10 0 0 0 -4.46 1.37 30.14 30.14 0 0 0 -5.26 3.54 20.63 20.63 0 0 0 -4.46 5.15 12 12 0 0 0 -1.83 6.4 13.7 13.7 0 0 0 3.09 9.15 39.65 39.65 0 0 0 7.66 6.86q4.57 3.21 9.95 6.52a43.42 43.42 0 0 1 9.94 8.58 44.63 44.63 0 0 1 7.67 13.14q3.08 7.89 3.08 20a53.79 53.79 0 0 1 -4.93 23.18z" fill="#05b9d1"/><path d="m337.59 585a88.53 88.53 0 0 1 -15.25 14.5 54 54 0 0 1 -15.61 8.16 39.73 39.73 0 0 1 -14.81 1.92 26.43 26.43 0 0 1 -12.66-4.12 29.52 29.52 0 0 1 -9.46-10.31 53.8 53.8 0 0 1 -5.8-16.27 81.76 81.76 0 0 1 -1.05-22.08 154.78 154.78 0 0 1 9-41.89 139.22 139.22 0 0 1 19.35-36.33 93.64 93.64 0 0 1 27.36-25 56.15 56.15 0 0 1 33.23-7.82 25.15 25.15 0 0 1 10.33 3 25.76 25.76 0 0 1 8.21 7 31.17 31.17 0 0 1 5.1 10.45 38.46 38.46 0 0 1 1.21 13.39l-.2 2.85a22.85 22.85 0 0 1 -.45 3.06l-30.46 5.84q-2.32-5.9-6-6.16t-8 3.67a58.13 58.13 0 0 0 -8.63 10.46 153.17 153.17 0 0 0 -8.61 14.52 176 176 0 0 0 -7.59 16.3q-3.35 8.25-5.61 15.76a60.29 60.29 0 0 0 -2.6 12.31q-.52 7.31 1.2 10.41a5.9 5.9 0 0 0 4.92 3.33 11.34 11.34 0 0 0 5.84-1.53 26.13 26.13 0 0 0 6.29-4.59 43.65 43.65 0 0 0 5.52-6.6 28 28 0 0 0 3.75-7.52l25.25 12.36a115 115 0 0 1 -13.77 20.93z" fill="#05b9d1"/><path d="m440.12 584-10.68 2.61c.21-4.45.42-8.82.63-13.14.13-3.76.21-7.53.27-11.29s.11-7 .18-9.68l-17.42 1.3-5.85 29.43q-4.37.93-10.32 2.08l-11.11 2.14-12.5 2.55q6-27.22 11.9-53.65 2.38-11 5-23.12t5.25-24q2.63-12 5-23t4.16-20.23q13.55-2 27.55-4.48t27.25-5.86q-.12 6.45-.11 16t.25 20.83q.23 11.25.55 23.51t.59 24.12q1.07 27.7 2.18 58.83-5.92 1.46-11.89 2.5-4.95 1.15-10.88 2.55zm-23.71-50.58c.53 0 1.5-.15 2.89-.32l4.39-.53 4.29-.52a16.34 16.34 0 0 0 2.78-.51c-.06-.8-.06-2.18 0-4.13s.09-4.16.11-6.65 0-5.2.09-8.16.1-5.85.16-8.67q0-10.28.35-22.17l-.1-17.52-3 .43-3.31 17.56z" fill="#05b9d1"/><path d="m469.84 628.68q5.54-31.66 10.53-62.24 2.17-12.68 4.34-26.73t4.08-27.77q1.9-13.72 3.41-26.57t2.59-23.54q5.46.44 11.75.72c4.19.19 8 .34 11.44.46s7.59.16 12.49.1q-4.63 26.24-7.83 43.07t-5.08 27.35q-1.87 10.51-3.47 20.26t-3.18 18.09c-1.07 5.58-2 10.32-2.76 14.24l4.1.33 35.33-119.21q6.17.27 12.59.33 5.73 0 12 .28t11.59 0q-4 9.78-8.29 21.59t-8.84 24.56q-4.59 12.71-9 25.89t-8.6 25.46q-9.67 28.81-19.46 59.23z" fill="#05b9d1"/><path d="m578.2 596.51 17.69-147.32 64.38-9.59q-1.15 4.61-1.88 9.37-.78 4-1.44 8.22c-.44 2.84-.79 5.36-1.07 7.57-1.36.22-3.3.45-5.81.67l-8.08.72q-4.31.38-8.7.64l-7.68.48-4.87 37.12q6.32-.81 11.84-1.36 4.49-.5 9.2-.79t7-.64q-.47 5.79-.83 11.36t-1 11.38q-2 .33-6.64.72c-3.06.27-6.16.56-9.3.9q-5.31.54-11.64 1.14l-4.6 38.12 29.6-6.58-.58 23.47z" fill="#05b9d1"/><path d="m656.21 626.73q4.68-30.11 8.86-58.3 1.45-12.1 3.18-25t3.16-25.56q1.44-12.62 2.51-24.18t1.43-20.91q2.68.06 4.56 0l4.34-.22q2.89-.15 7-.46t8.26-.73l8.87-.86q3.62 14.26 6.62 27.58 2.88 11.67 5.88 24t5.31 20.88q.62-4.17 1.38-9.71t1.69-11.59q.93-6.06 1.76-12.22t1.77-12.22q2.21-13.59 4.59-28l25.07-4.38q-5.43 32-9.36 60.61-1.87 12.33-3.61 25t-3.23 24.21q-1.49 11.59-2.43 21.48t-1.44 16.56a46.15 46.15 0 0 0 -4.82 1.18c-2.79.76-6 1.65-9.6 2.66l-10.84 3a63.85 63.85 0 0 0 -8.06 2.69q-2.07-16.48-4.28-31.3-.94-6.37-2-13.06t-2.23-12.88q-1.14-6.16-2.24-11.5c-.73-3.55-1.44-6.63-2.13-9.22q-.42 4-1.19 9.18t-1.51 11.07q-.75 5.85-1.45 12.2t-1.66 12.22q-2 14-4.33 29.25z" fill="#05b9d1"/><path d="m874.08 538.24q-6.51 17.32-16.33 29.3a71.5 71.5 0 0 1 -21.52 18.22q-11.7 6.22-22.46 6.8a36.09 36.09 0 0 1 -16-2.75 35.16 35.16 0 0 1 -13.58-10.19 55.16 55.16 0 0 1 -9.59-17.81 94.39 94.39 0 0 1 -4.5-25.62q-1.53-28.92 5.63-50.88t19.07-37q11.91-15 26-22.73t26.65-8.38a36.15 36.15 0 0 1 15.75 2.32 30.68 30.68 0 0 1 11.31 7.83 33.12 33.12 0 0 1 6.82 12 56.79 56.79 0 0 1 2.69 14.8l-30.4 7.45q-2.49-8.85-6.06-12.49a10 10 0 0 0 -7.82-3.41q-5.61.3-11.91 8.61a91 91 0 0 0 -11.47 21.18 169.86 169.86 0 0 0 -8.36 28.13 129.12 129.12 0 0 0 -3 29.83q.74 13.9 5.2 19.62t11 5.38a22.18 22.18 0 0 0 9.19-2.73 27.39 27.39 0 0 0 8.29-6.85 38.13 38.13 0 0 0 5.88-10 30.55 30.55 0 0 0 2.17-12.15l-23.8 4.86 3.07-22.39q10.47-1.9 20.48-3.78 8.46-1.56 17.91-3.64t16.61-3.77q-.42 22.92-6.92 40.24z" fill="#05b9d1"/><path d="m874 617.29 28.4-162.87 72.2-6.87c-1 3.37-1.91 6.8-2.64 10.32-.74 2.9-1.43 5.92-2.09 9.05s-1.2 5.92-1.63 8.36q-2.3.25-6.52.41l-9 .31q-4.8.17-9.72.21l-8.57.08-7.61 41q7.08-.52 13.25-.81 5-.27 10.29-.33t7.77-.3q-.85 6.42-1.59 12.59t-1.82 12.6c-1.53.17-4 .31-7.43.41s-6.9.26-10.4.45q-6 .29-13 .58l-7.37 42.15 33.34-5.58-2 26.09z" fill="#05b9d1"/><path d="m971.32 590.14q5.07-30.61 9.72-59.86 1.61-12.4 3.64-25.87t3.72-26.69q1.68-13.22 3.19-25.51t2.27-22.4a161.71 161.71 0 0 1 27.89-7.08 234.37 234.37 0 0 1 29.87-3 44.77 44.77 0 0 1 14.81 1.52 21.39 21.39 0 0 1 9.36 5.49 22 22 0 0 1 5 8.63 42.46 42.46 0 0 1 1.78 11.15 52.18 52.18 0 0 1 -2.55 18.06 75.09 75.09 0 0 1 -8 17 85.92 85.92 0 0 1 -11.81 14.85 66.57 66.57 0 0 1 -14.59 11.17q4.46 9 9.53 19.68t9.55 20.36q5 11.26 10.2 22.51l-35 13.63q-5.1-14.44-9.23-27.12-1.79-5.19-3.59-10.74t-3.36-10.52c-1-3.31-1.91-6.3-2.61-8.94a50.22 50.22 0 0 1 -1.38-6.47l-2.94 1q-1.11 7.37-2.69 17.26t-2.85 19.1q-1.67 10.81-3.32 21.86zm50.1-101.14q4.32-.6 10.49-4a74 74 0 0 0 11.72-8.09 68.09 68.09 0 0 0 9.49-9.62q3.93-5 3.8-8.6a5.19 5.19 0 0 0 -1.74-3.94 10.79 10.79 0 0 0 -4.54-2.13 31.34 31.34 0 0 0 -6.32-.8c-2.29-.06-4.66-.06-7.1 0-1.67.06-3.39.17-5.13.3s-3.31.24-4.68.29z" fill="#05b9d1"/><path d="m412.11 844.75q9-30.82 17.72-60.52 3.32-12.54 7.18-26.06t7.48-26.72q3.6-13.2 6.91-25.63t5.93-22.74l37.12 1.15q-5.45 15.56-10.92 32.47t-10.29 33l22.78-.27q4.78-15.84 8.8-30.73t9.7-30.64q5.33-.37 11.75-.32t11.94.15q5.5.08 13.08.14-4.2 9.93-8.25 21.82t-8.04 24.71q-4 12.83-7.87 26t-7.08 25q-7.87 28.41-15.2 58.24l-35.91.58q4.32-13.36 7.88-26.11 3.36-10.69 6.92-22.29t5.77-19.89l-22.32-.09q-2.46 8.5-5.74 19.66t-6.13 21.22q-3.72 12-7.45 24.08z" fill="#05b9d1"/><path d="m623.08 846.38-5.35 9.44a56.84 56.84 0 0 1 -12.92 15.78 54.25 54.25 0 0 1 -16.33 9.56 60.55 60.55 0 0 1 -17.67 3.66 35.67 35.67 0 0 1 -10.81-1.15 30.07 30.07 0 0 1 -10.1-4.67 27.91 27.91 0 0 1 -7.65-8.3 25.34 25.34 0 0 1 -3.49-12.19l-.1-1.82a7.64 7.64 0 0 1 .13-1.84q.44-9.42 1.8-22.77t2.9-27.86q1.53-14.5 3.52-29.15t3.53-26.63q1.56-12 2.74-20t1.55-9.82q4.77-.71 11.36-1.73t12.28-1.79l13.86-2.09q-4.51 27.95-7.91 50.56-1.54 9.71-3 19.39t-2.74 17.78q-1.31 8.08-2.25 14l-1.56 9.58c-.41 2.47-.86 5.58-1.35 9.35a56.78 56.78 0 0 0 -.52 10.33 9.72 9.72 0 0 0 2.14 5.95 5.53 5.53 0 0 0 4.7 2.16 7.9 7.9 0 0 0 6.23-3.41 27.82 27.82 0 0 0 3.84-7.65 46.21 46.21 0 0 0 2-8.92c.38-3 .76-5.34 1.13-7q1-6.69 2.31-14.89t2.65-17.17q1.24-8.88 2.49-18.11t2.38-18q2.83-20.29 5.38-42l34.59-4.09q-1.67 12-3 21.91t-2.84 22.65q-1.51 12.68-3.55 26.4t-4 27q-1.93 13.27-3.88 24.36z" fill="#05b9d1"/><path d="m645.86 856.36q4.41-33.36 8.28-64.6 1.29-13.39 2.86-27.76t2.83-28.3q1.26-14 2.14-26.76t1-23.12c2 0 3.66-.05 5-.15l4.79-.35q3.2-.24 7.75-.69t9.09-1c3-.38 6.29-.77 9.78-1.19q4.37 15.74 8 30.37 3.48 12.81 7.11 26.3t6.51 22.89q.57-4.63 1.26-10.76t1.57-12.84q.88-6.72 1.63-13.54t1.64-13.54q2.09-15.06 4.34-31.05l27.56-5.44q-5.16 35.46-8.77 67.15-1.74 13.66-3.34 27.65t-2.94 26.82q-1.35 12.82-2.13 23.78t-1.17 18.32a46.49 46.49 0 0 0 -5.28 1.42q-4.61 1.38-10.54 3.19l-11.89 3.63a71.36 71.36 0 0 0 -8.82 3.18q-2.72-18.13-5.54-34.44c-.8-4.68-1.66-9.47-2.55-14.38s-1.83-9.61-2.77-14.12-1.87-8.73-2.77-12.64-1.77-7.28-2.59-10.13q-.36 4.4-1.08 10.17t-1.38 12.26q-.67 6.48-1.29 13.51t-1.52 13.53q-1.85 15.49-4 32.4z" fill="#05b9d1"/><path d="m781.81 868.28q3.48-25.46 6.55-50.21 1.32-10.41 2.59-21.73t2.44-22.3q1.17-11 1.94-21.23t1.31-18.81a62.1 62.1 0 0 0 -10.64.29 31.47 31.47 0 0 1 -10.71-.62q0-3.66-.37-8.46t-.44-9.59q-.15-5.26-.34-11.21 6 0 11.91-.16t11.88-.61q11.64-.81 22.43-2.15t20-2.79q9.18-1.44 18-3.22l-1.66 12.52c-.52 3.55-1 7.18-1.41 10.87s-.86 6.87-1.28 9.49a66.26 66.26 0 0 1 -10.01 2.64q-5.1.93-10 2.2-1.05 7.86-2.21 17.46t-2.15 19.87q-1 10.27-1.85 20.88t-1.79 20.34q-2.1 22.85-3.58 47.25z" fill="#05b9d1"/><g clip-path="url(#b)"><g fill="#fff"><circle cx="74.35" cy="-9.13" r="189.73"/><circle cx="415.87" cy="-9.13" r="227.68"/><circle cx="774.63" cy="-119.52" r="289.77"/><circle cx="1140.3" cy="-9.13" r="203.53"/><path d="m1140.3-212.66a202.75 202.75 0 0 0 -85.55 18.85c-32.81-124.04-145.75-215.49-280.12-215.49-124.84 0-231.23 79-272 189.65a226.89 226.89 0 0 0 -86.77-17.16 227.52 227.52 0 0 0 -194 108.45 189.3 189.3 0 0 0 -147.51-70.51c-104.79 0-189.73 85-189.73 189.74s84.94 189.73 189.73 189.73a189.33 189.33 0 0 0 147.55-70.5 227.51 227.51 0 0 0 194 108.44 227.41 227.41 0 0 0 190.1-102.48 288.34 288.34 0 0 0 168.62 54.19 288.66 288.66 0 0 0 192.17-73 203.4 203.4 0 0 0 173.5 97.11c112.41 0 203.53-91.13 203.53-203.53s-91.11-203.49-203.52-203.49z"/></g><path d="m64 153a162.13 162.13 0 0 1 -162.13-162.13 162.13 162.13 0 0 1 162.13-162.14c-94.33 88.44-94.33 235.83 0 324.27z" fill="#f9f9f9"/><path d="m436.57-198.87c104.78 0 189.73 85 189.73 189.74s-84.95 189.73-189.73 189.73c110.43-103.49 110.43-275.98 0-379.47z" fill="#f9f9f9"/><path d="m964.94-4.36c11.18 67.88-52.85 135-143 149.8s-172.33-28.14-183.51-96c100.81 56.82 249.23 32.38 326.51-53.8z" fill="#f9f9f9"/><path d="m1147.2-198.87c104.79 0 189.73 85 189.73 189.74s-84.93 189.73-189.73 189.73c110.39-103.49 110.39-275.98 0-379.47z" fill="#f9f9f9"/></g><g fill="#f00"><path d="m316.29 1098.52h-15.61v-5.25h-5.19v-5.1l-5.26-.05v10.4h-10.35v-36.45h31.2v5.25h5.21v15.6h-10.46v5.25h5.25v5.1h5.21zm-10.46-20.77v-10.43h-15.6v15.6h10.45v-5.17z"/><path d="m359.34 1098.52h-36.4v-36.45h36.4v5.25h-26v10.4h20.85v5.15h-20.9v10.4h26z"/><path d="m402.4 1098.52h-10.46v-10.4h-15.18v10.4h-10.76v-26.1h5.14v-5.1h5.2v-5.25h15.6v5.25h5.26v5.1h5.2zm-10.46-15.65v-10.45h-5.09v-5.1h-5.25v5.1h-4.84v10.45z"/><path d="m445.4 1088.17h-5.2v5.1h-5.2v5.25h-25.95v-36.45h25.95v5.25h5.24v5.1h5.2zm-10.4 0v-15.75h-5.15v-5.1h-10.45v26h10.45v-5.1z"/><path d="m485.85 1077.72h-5.17v5.15h-5.17v15.65h-10.46v-15.65h-5.2v-5.15h-5.14v-15.65h10.34v15.65h10.46v-15.65h10.34z"/><path d="m574.62 1082.87h-5.2v5.25h-20.86v10.4h-10.34v-36.45h31.2v5.25h5.2zm-10.45 0v-15.55h-15.61v15.55z"/><path d="m617.62 1098.52h-36.4v-36.45h10.35v31.2h26z"/><path d="m660.73 1098.52h-10.45v-10.4h-15.19v10.4h-10.76v-26.1h5.15v-5.1h5.2v-5.25h15.6v5.25h5.25v5.1h5.2zm-10.45-15.65v-10.45h-5.1v-5.1h-5.25v5.1h-4.84v10.45z"/><path d="m701.13 1077.72h-5.13v5.15h-5.18v15.65h-10.49v-15.65h-5.2v-5.15h-5.13v-15.65h10.35v15.65h10.45v-15.65h10.35z"/><path d="m746.84 1098.52h-36.4v-36.45h36.4v5.25h-26.05v10.4h20.85v5.15h-20.85v10.4h26.05z"/><path d="m789.89 1098.52h-15.6v-5.25h-5.2v-5.1l-5.25-.05v10.4h-10.35v-36.45h31.2v5.25h5.2v15.6h-10.45v5.25h5.25v5.1h5.2zm-10.45-20.77v-10.43h-15.6v15.6h10.45v-5.17z"/><path d="m876 1093.27h-5.2v5.25h-26v-5.25h-5.2v-26h5.15v-5.25h26v5.25h5.25zm-10.45 0v-26h-15.55v26z"/><path d="m919.06 1098.52h-10.45v-5.3h-5.15v-5.1h-5.2v-5.25h-5.26v15.65h-10.34v-36.45h10.34v5.25h5.25v5.1h5.2v5.3h5.15v-15.65h10.45z"/><path d="m962.12 1098.52h-36.4v-36.45h36.4v5.25h-26.06v10.4h20.86v5.15h-20.86v10.4h26.06z"/></g><path d="m-1-2h1235v2203h-1235z" fill="none"/></svg>