<svg height="36.45" viewBox="0 0 682.23 36.45" width="682.23" xmlns="http://www.w3.org/2000/svg"><g fill="#f00"><path d="m36.4 36.45h-15.6v-5.25h-5.2v-5.1l-5.25-.05v10.4h-10.35v-36.45h31.2v5.25h5.2v15.6h-10.4v5.25h5.2v5.1h5.2zm-10.4-20.76v-10.44h-15.65v15.6h10.45v-5.16z"/><path d="m79.46 36.45h-36.4v-36.45h36.4v5.25h-26.06v10.4h20.85v5.15h-20.85v10.4h26.06z"/><path d="m122.51 36.45h-10.45v-10.4h-15.18v10.4h-10.77v-26.1h5.15v-5.1h5.2v-5.25h15.6v5.25h5.25v5.1h5.2zm-10.45-15.65v-10.45h-5.06v-5.1h-5.25v5.1h-4.87v10.45z"/><path d="m165.51 26.1h-5.2v5.1h-5.24v5.25h-25.9v-36.45h25.9v5.25h5.24v5.1h5.2zm-10.4 0v-15.75h-5.11v-5.1h-10.49v26h10.49v-5.15z"/><path d="m206 15.65h-5.18v5.15h-5.17v15.65h-10.48v-15.65h-5.17v-5.15h-5.15v-15.65h10.35v15.65h10.45v-15.65h10.35z"/><path d="m294.73 20.8h-5.2v5.25h-20.85v10.4h-10.35v-36.45h31.2v5.25h5.2zm-10.45 0v-15.55h-15.6v15.55z"/><path d="m337.74 36.45h-36.4v-36.45h10.34v31.2h26.06z"/><path d="m380.84 36.45h-10.45v-10.4h-15.18v10.4h-10.77v-26.1h5.15v-5.1h5.2v-5.25h15.6v5.25h5.25v5.1h5.2zm-10.45-15.65v-10.45h-5.1v-5.1h-5.29v5.1h-4.83v10.45z"/><path d="m421.25 15.65h-5.18v5.15h-5.17v15.65h-10.45v-15.65h-5.2v-5.15h-5.15v-15.65h10.35v15.65h10.45v-15.65h10.35z"/><path d="m467 36.45h-36.4v-36.45h36.4v5.25h-26.1v10.4h20.85v5.15h-20.85v10.4h26.1z"/><path d="m510 36.45h-15.6v-5.25h-5.2v-5.1l-5.2-.05v10.4h-10.39v-36.45h31.2v5.25h5.19v15.6h-10.44v5.25h5.25v5.1h5.19zm-10.44-20.76v-10.44h-15.56v15.6h10.45v-5.16z"/><path d="m596.12 31.2h-5.2v5.25h-26v-5.25h-5.15v-25.95h5.15v-5.25h26v5.25h5.2zm-10.45 0v-25.95h-15.6v26z"/><path d="m639.17 36.45h-10.45v-5.3h-5.14v-5.1h-5.2v-5.25h-5.26v15.65h-10.34v-36.45h10.34v5.25h5.26v5.1h5.2v5.3h5.14v-15.65h10.45z"/><path d="m682.23 36.45h-36.4v-36.45h36.4v5.25h-26.05v10.4h20.82v5.15h-20.82v10.4h26.05z"/></g></svg>