<svg height="97.97" viewBox="0 0 92.36 97.97" width="92.36" xmlns="http://www.w3.org/2000/svg" xmlns:xlink="http://www.w3.org/1999/xlink"><clipPath id="a"><circle cx="46.18" cy="51.79" r="45.04"/></clipPath><circle cx="46.18" cy="51.79" fill="#fff" r="40.46"/><circle cx="46.18" cy="51.79" fill="none" r="45.04"/><circle cx="46.18" cy="51.79" fill="none" r="45.04"/><g clip-path="url(#a)"><path d="m85 75.21c0 12.04-17.22 21.79-38.45 21.79s-38.46-9.75-38.46-21.79c0-6.17 1.76-11 .17-32.46 0 0 27.93-.42 38.29-.42 14.6 0 38.27.33 38.27.33-1.62 22.05.18 28.79.18 32.55z" fill="#00c3e5"/><g fill="#01a3ba"><path d="m72.2 91.84a36.34 36.34 0 0 0 7.47-5.16v-30.89l-7.47 4.91z"/><path d="m52.38 66.39v30.77a58.58 58.58 0 0 0 11.31-2v-31.64z"/><path d="m20.78 60.4-7.33-5-.06 31.3a31.81 31.81 0 0 0 7.47 5.17"/><path d="m29.43 95.13a40 40 0 0 0 11.11 2v-30.74l-11-2.06z"/></g></g><path d="m3.31 37.92a45.5 45.5 0 0 0 -1.77 7.84" fill="none" stroke="#fff" stroke-linecap="round" stroke-miterlimit="10" stroke-width="2.29"/><path d="m90.52 43.82a45.2 45.2 0 0 0 -1.3-5.34" fill="none" stroke="#fff" stroke-linecap="round" stroke-miterlimit="10" stroke-width="2.29"/><path d="m89.92 62.58a45.15 45.15 0 0 0 1.3-10.79c0-.71 0-1.42 0-2.12" fill="none" stroke="#fff" stroke-linecap="round" stroke-miterlimit="10" stroke-width="2.29"/><path d="m1.15 52.65a45 45 0 0 0 86.71 16.24" fill="none" stroke="#fff" stroke-linecap="round" stroke-miterlimit="10" stroke-width="2.29"/><path d="m21.56 8.82c-.23-3.6-2.95-6.35-6-6.16s-5.49 3.27-5.26 6.88 2.8 6.23 5.83 6.18l-.36.78 1.23-.08-.45-.76h.1c2.94-.38 5.13-3.36 4.91-6.84z" fill="#f22400" opacity=".9"/><path d="m29.61 13.8c-.23-3.61-2.95-6.35-6-6.16s-5.45 3.27-5.22 6.88 2.8 6.23 5.83 6.17l-.36.78 1.24-.07-.45-.76h.11c2.91-.36 5.07-3.36 4.85-6.84z" fill="#3da9f6" opacity=".8"/><path d="m24.42 21.49c-1.6 5.51-3.42 22.56-3.42 22.56" fill="none" stroke="#000" stroke-linejoin="round" stroke-width=".13"/><path d="m19.11 26.56c-.22 4.1.42 17.55.42 17.55" fill="none" stroke="#000" stroke-linejoin="round" stroke-width=".15"/><path d="m16.34 16.51c.59 6.81 2.42 27.49 2.42 27.49" fill="none" stroke="#000" stroke-linejoin="round" stroke-width=".13"/><path d="m24.33 18.87c-.23-3.61-2.94-6.36-6-6.16s-5.49 3.29-5.26 6.88 2.81 6.23 5.83 6.17l-.35.78 1.23-.08-.45-.75h.11c2.92-.36 5.11-3.36 4.89-6.84z" fill="#fd7800" opacity=".8"/><path d="m75.28 9.77c-.23-3.61-2.94-6.35-6-6.16s-5.49 3.27-5.28 6.88 2.81 6.23 5.83 6.17l-.35.78 1.23-.07-.45-.76h.11c2.94-.38 5.13-3.36 4.91-6.84z" fill="#fd7800" opacity=".8"/><path d="m84.28 13.8c-.23-3.61-2.94-6.35-6-6.16s-5.49 3.27-5.28 6.88 2.81 6.23 5.83 6.17l-.35.78 1.24-.07-.46-.76h.11c2.97-.36 5.13-3.36 4.91-6.84z" fill="#1dcf01" opacity=".8"/><path d="m79.09 21.49c-1.59 5.51-3.41 22.56-3.41 22.56" fill="none" stroke="#000" stroke-linejoin="round" stroke-width=".13"/><path d="m73.79 26.56c-.23 4.1.41 17.55.41 17.55" fill="none" stroke="#000" stroke-linejoin="round" stroke-width=".15"/><path d="m71 16.51c.61 6.81 2.44 27.49 2.44 27.49" fill="none" stroke="#000" stroke-linejoin="round" stroke-width=".13"/><path d="m79 18.87c-.23-3.61-3-6.36-6.05-6.16s-5.43 3.29-5.2 6.88 2.8 6.23 5.83 6.17l-.36.78 1.24-.08-.46-.75h.1c2.9-.36 5.13-3.36 4.9-6.84z" fill="#f22400" opacity=".7"/><path d="m84.23 40.39a18 18 0 0 0 -4.89-7s-16.46-6.2-32.79-21.95c-16.33 15.71-32.69 21.82-32.69 21.82a18.22 18.22 0 0 0 -4.86 6.89" fill="#74bd43"/><path d="m46.55 11.4c-16.33 15.78-32.69 21.91-32.69 21.91-3.66 3.34-5.77 7.29-5.77 11.52 0 12.07 17.22 21.86 38.46 21.86s38.45-9.79 38.45-21.86c0-4.18-2.07-8.09-5.66-11.42 0 0-16.46-6.22-32.79-22z" fill="#00cbff"/><g fill="#02b6d4"><path d="m49.15 13.66a104 104 0 0 0 30.19 19.7 14.41 14.41 0 0 1 3.94 4.93s-11 .07-33.66-24.23z"/><path d="m85 44.86s-13.92-5.52-34.5-29.86l-1.14.47s21.55 30.5 34.33 35a12.38 12.38 0 0 0 1.31-5.61z"/><path d="m79.52 56s-7-1.95-29.07-38.39l-.83.61s15.6 38.14 22.55 42.78c0 0 5.22-2.2 7.35-5z"/><path d="m49.62 18.2s9.83 42.36 13.92 46.13a35.81 35.81 0 0 1 -11.16 2.06s-4.66-37.81-4.38-48.19z"/><path d="m43.88 13.66a104 104 0 0 1 -30.19 19.7 14.5 14.5 0 0 0 -3.95 4.93s11 .07 33.67-24.23z"/><path d="m8 44.86s14-5.52 34.53-29.86l1.14.47s-21.55 30.5-34.33 35a12.38 12.38 0 0 1 -1.34-5.61z"/><path d="m13.51 56s7-1.95 29.07-38.39l.83.61s-15.6 38.14-22.55 42.78c0 0-5.22-2.2-7.35-5z"/><path d="m43.41 18.2s-9.83 42.36-13.92 46.13c0 0 4 2 11 2.36 0 0 4.82-38.11 4.58-48.49z"/></g><path d="m40.54 66.39c0 1.3 2.65 2.35 5.92 2.35s5.92-1 5.92-2.35z" fill="#00cbff"/><path d="m20.87 61.1c-.48 1.2 1.05 2.93 3.4 3.85s4.65.69 5.12-.52z" fill="#00cbff"/><path d="m63.52 64.42c.47 1.21 2.76 1.46 5.12.55s3.89-2.63 3.42-3.84z" fill="#00cbff"/><path d="m9.49 50.38c-.54.51-.64 2.34.45 3.88s2.66 2.32 3.51 1.74z" fill="#00cbff"/><path d="m79.41 55.93c.65.37 2.42-.06 3.59-1.55s1.45-3.22.63-3.86z" fill="#00cbff"/><path d="m52.38 66.44c.23 1.28 2.93 1.85 6 1.28s5.42-2.07 5.19-3.34z" fill="#02b6d4"/><path d="m29.65 64.18c-.27 1.37 2 2.95 5 3.55s5.68 0 5.95-1.4z" fill="#02b6d4"/><path d="m13.42 56c-.73 1.08.34 3.08 2.4 4.47s4.32 1.66 5 .59z" fill="#02b6d4"/><path d="m72.15 61.12c.75 1.05 3 .74 5-.69s3.06-3.46 2.31-4.52z" fill="#02b6d4"/><path d="m8.12 44.88a4.74 4.74 0 0 0 -.58 3.12c.34 1.55 1.15 2.69 1.81 2.54z" fill="#02b6d4"/><path d="m83.64 50.52a4.71 4.71 0 0 0 1.88-2.52c.38-1.54.15-2.92-.51-3.09z" fill="#02b6d4"/><path d="m85 44.94a6.27 6.27 0 0 0 .21-3.66c-.54-1.82-1.5-3.15-2.15-3z" fill="#00cbff"/><path d="m9.84 38.29a6.23 6.23 0 0 0 -2.08 3c-.49 1.84-.36 3.47.29 3.64z" fill="#00cbff"/><path d="m57.23.95h-6.44v5.53h6.44l-3.85-2.76z" fill="#00568b"/><path d="m46.55 2.1v9.69" fill="none" stroke="#8ec868" stroke-miterlimit="10" stroke-width=".83"/><path d="m54.8 18.1c0 2.59-3.69 4.68-8.25 4.68s-8.26-2.09-8.26-4.68l8.26-7.1z" fill="#02b6d4"/><path d="m46.29 0h6.4v5.53h-6.4z" fill="#0f78bd"/><ellipse cx="21.63" cy="16.22" fill="#fdb994" rx=".94" ry="1.47" transform="matrix(.78929846 -.61400972 .61400972 .78929846 -5.4 16.7)"/><ellipse cx="27.68" cy="11.56" fill="#aadcff" opacity=".8" rx=".78" ry="1.62" transform="matrix(.8660254 -.5 .5 .8660254 -2.07 15.39)"/><ellipse cx="19.09" cy="5.93" fill="#ffbec0" opacity=".9" rx=".78" ry="1.62" transform="matrix(.8660254 -.5 .5 .8660254 -.41 10.34)"/><ellipse cx="76.79" cy="16.92" fill="#ffbec0" opacity=".9" rx=".94" ry="1.47" transform="matrix(.87 -.5 .5 .87 1.83 40.66)"/><ellipse cx="82.26" cy="12" fill="#c2fbb6" opacity=".8" rx=".78" ry="1.62" transform="matrix(.8660254 -.5 .5 .8660254 5.02 42.74)"/><ellipse cx="72.67" cy="6.63" fill="#fdb994" rx=".78" ry="1.62" transform="matrix(.8660254 -.5 .5 .8660254 6.42 37.22)"/></svg>